<?xml version="1.0" encoding="UTF-8" standalone="no"?>
<svg
   xmlns:dc="http://purl.org/dc/elements/1.1/"
   xmlns:cc="http://creativecommons.org/ns#"
   xmlns:rdf="http://www.w3.org/1999/02/22-rdf-syntax-ns#"
   xmlns:svg="http://www.w3.org/2000/svg"
   xmlns="http://www.w3.org/2000/svg"
   xmlns:sodipodi="http://sodipodi.sourceforge.net/DTD/sodipodi-0.dtd"
   xmlns:inkscape="http://www.inkscape.org/namespaces/inkscape"
   version="1.1"
   viewBox="0 0 600 600"
   width="100%"
   height="100%"
   xlink="http://www.w3.org/1999/xlink"
   style="overflow:hidden"
   id="svg1365"
   sodipodi:docname="Benson.svg"
   inkscape:version="1.0.1 (3bc2e813f5, 2020-09-07)">
  <metadata
     id="metadata1369">
    <rdf:RDF>
      <cc:Work
         rdf:about="">
        <dc:format>image/svg+xml</dc:format>
        <dc:type
           rdf:resource="http://purl.org/dc/dcmitype/StillImage" />
        <dc:title></dc:title>
      </cc:Work>
    </rdf:RDF>
  </metadata>
  <sodipodi:namedview
     pagecolor="#ffffff"
     bordercolor="#666666"
     borderopacity="1"
     objecttolerance="10"
     gridtolerance="10"
     guidetolerance="10"
     inkscape:pageopacity="0"
     inkscape:pageshadow="2"
     inkscape:window-width="1215"
     inkscape:window-height="621"
     id="namedview1367"
     showgrid="false"
     inkscape:zoom="0.68"
     inkscape:cx="300"
     inkscape:cy="241.17647"
     inkscape:window-x="0"
     inkscape:window-y="0"
     inkscape:window-maximized="0"
     inkscape:current-layer="svg1365" />
  <g
     id="svga-group-wrapper"
     transform="scale(3 3)">
    <g
       id="svga-group-backs-single">
      <path
         id="SvgjsPath2877"
         d="M225 225H-25V-25h250V225z"
         fill="#ecf0f1"
         stroke-width="none"
         opacity="1"
         style="fill:#ffffff;fill-opacity:1" />
    </g>
    <g
       id="svga-group-subwrapper">
      <g
         id="svga-group-hair-back" />
      <g
         id="svga-group-humanbody-single">
        <path
           id="SvgjsPath2893"
           d="M195.417 199.778c-2.196-4.746-8.195-11.779-14.86-13.722 -8.239-2.403-26.837-5.308-33.733-6.923 -5.528-1.296-16.662-11.294-20.564-14.65 -0.7-0.6-1.273-1.839-1.287-2.76 -0.139-10.864 4.195-39.724 4.195-39.724H100 70.833c0 0 4.334 28.859 4.193 39.724 -0.011 0.921-0.587 2.16-1.285 2.76 -3.902 3.356-15.036 13.354-20.564 14.65 -6.897 1.615-25.495 4.619-33.733 7.022 -6.667 1.942-12.664 8.876-14.86 13.622 -3.708 8.008-4.584 22.5-4.584 35h100 100C200 222.278 199.123 207.786 195.417 199.778z"
           fill="#582812"
           stroke-width="none"
           opacity="1"
           stroke="none"
           style="fill:none" />
        <path
           id="SvgjsPath2895"
           d="M95.646 197.62c0 0-5.074-1.609-7.083-2.379 -10.449-4.009-44.395-6.607-44.395-6.607s35.754 1.419 43.644 2.779c-0.458-4.767-3.017-20.004-3.017-20.004s5.149 16.815 6.409 21.057C91.878 194.734 95.646 197.62 95.646 197.62zM106.445 196.278c-0.089 0.073-0.191 0.168-0.302 0.268C106.256 196.461 106.358 196.372 106.445 196.278zM95.646 197.62c0 0 2.893 2.992 4.347 3.03 1.91 0.051 4.828-2.899 6.151-4.104 -1.265 0.957-4.159 1.391-5.31 1.436C99.504 198.033 95.646 197.62 95.646 197.62zM116.664 190.101c-1.545 0.248-4.386 0.789-4.386 0.789l2.287-14.89c-0.646 3.071-4.474 16.211-8.12 20.278 1.91-1.616 6.158-2.391 8.324-2.704 10.236-1.484 10.232-1.483 41.062-4.94C155.831 188.634 126.76 188.479 116.664 190.101z"
           fill="#491c08"
           stroke-width="none"
           opacity="1"
           stroke="none"
           style="fill:none" />
        <path
           id="SvgjsPath2896"
           d="M 195.417,199.778 C 193.221,195.032 187.222,187.999 180.557,186.056 172.318,183.653 153.72,180.748 146.824,179.133 141.296,177.837 130.162,167.839 126.26,164.483 125.56,163.883 124.987,162.644 124.973,161.723 124.834,150.859 127.314,151.298 127.314,151.298 L 98.305085,162.67697 73.49,150 C 73.49,150 75.167,150.858 75.026,161.723 75.015,162.644 74.439,163.883 73.741,164.483 69.839,167.839 58.705,177.837 53.177,179.133 46.28,180.748 27.682,183.752 19.444,186.155 12.777,188.097 6.78,195.031 4.584,199.777 0.876,207.785 -7.128,222.198 -7.128,234.698 L 100,234.777 205.535,236.07 C 205.535,223.571 199.123,207.786 195.417,199.778 Z"
           fill="none"
           stroke="#2a0d00"
           stroke-width="1.5"
           opacity="1"
           sodipodi:nodetypes="ccccccccccccccccc" />
      </g>
      <g
         id="svga-group-chinshadow-single">
        <path
           id="SvgjsPath3050"
           d="M75.517 163.052c6.979 4.54 16.307 8.814 24.485 8.814 7.828 0 17.345-4.309 24.458-8.869 -0.145-0.428-0.233-0.862-0.239-1.264 -0.126-9.877 3.345-34.021 4.076-38.983H71.703c0.73 4.963 4.202 29.106 4.074 38.982C75.772 162.146 75.676 162.603 75.517 163.052z"
           fill="url(#SvgjsLinearGradient3051)"
           opacity="1"
           style="fill:none" />
      </g>
      <g
         id="svga-group-clothes-single">
        <path
           id="SvgjsPath3083"
           d="M204.771 234.683c-25.073-0.247-64.243-0.011-96.057 0.107l3.764-34.23c0.389-8.876 4.307-11.191 6.412-16.545 8.523-21.672 5.125-15.237 7.986-33.135 9.692 1.334 17.243 21.017 24.338 23.615 -0.013 0.428-0.331 2.404-0.756 4.897C187.119 186.985 200 178.735 204.771 234.683zM93.475 200.708c-1.059-3.137-5.48-7.747-7.551-10.751 -3.566-5.185-6.529-10.696-10.881-23.596 -0.007-0.147-0.702-11.408-1.848-16.205 -5.765 2.713-4.729 7.144-13.599 17.518 -1.859 2.164-5.543 2.829-9.259 5.004 -0.191 2.096-0.221 3.92-0.15 5.647 -9.297 1.408-35.372 7.032-44.861 14.346 -4.399 10.161-14.504 29.002-12.896 42.922 28.234-0.305 71.192-0.595 107.381-0.803 0 0 1.301-19.904-6.86-34.308C93.133 200.552 93.31 200.625 93.475 200.708z"
           fill="#82cbe2"
           stroke-width="none"
           opacity="1"
           stroke="none"
           style="stroke:#2a0d00;stroke-opacity:1;fill:none" />
        <path
           id="SvgjsPath3084"
           d="M50.767 179.432c-19.906 5.692-32.87 9.836-42.029 15.092 -4.175 7.794-11.07 18.835-14.845 40.267 -0.052 0.001-0.968-0.093-1.021-0.093 0.093-17.071 7.793-30.803 12.432-41.844 10.206-8.257 32.288-12.34 44.999-14.381C50.34 178.543 50.731 179.366 50.767 179.432zM150.498 179.568c12.711 2.041 31.496 4.167 42.121 10.917 7.375 11.125 11.428 26.836 11.521 43.907 -0.052 0-0.968 0.094-1.021 0.093 -3.774-21.432-8.325-33.206-12.5-41 -9.159-5.256-20.679-7.266-40.585-12.958C150.07 180.462 150.461 179.639 150.498 179.568z"
           fill="#a3dff1"
           stroke-width="none"
           opacity="1"
           stroke="none"
           style="fill:#000000;fill-opacity:1" />
        <path
           id="SvgjsPath3085"
           d="M119.635 201.16c-1.72-0.976-4.987-1.16-7.002 0.596 0.596-1.756 2.792-3.204 5.675-3.524 9.016 1.769 19.906 13.866 30.706 18.396C138.306 214.798 127.818 205.804 119.635 201.16zM93.667 202.167L92.479 200c-2.057 0.038-6.953 0.482-9.014 2.309 -9.292 8.233-24.119 12.352-30.718 16.655C86.703 209.902 80.203 202.736 93.667 202.167z"
           fill="#49a6c3"
           stroke-width="none"
           opacity="1"
           stroke="none"
           style="fill:#000000;fill-opacity:1" />
        <path
           id="SvgjsPath3086"
           d="M115.619 198.985c-1.493 0.426-3.061 1.553-3.142 1.574 0.389-8.876 4.307-11.191 6.412-16.545 8.523-21.672 5.125-15.237 7.986-33.135 1.941 0.266 3.798 1.415 5.582 3.085 -1.227 9.5-3.84 17-7.646 25.567 4.461-2.522 9.298-5.611 13.672-8.026C129.391 179.69 118.516 187.081 115.619 198.985zM93.475 200.708c-1.059-3.137-5.48-7.747-7.551-10.751 -3.566-5.185-6.529-10.696-10.881-23.596 -0.007-0.147-0.702-11.408-1.848-16.205 -3.646 1.714-3.34 2.955-5.771 7.11 1.958 10.127 5.915 16.565 11.527 24.985 -4.784-3.154-11.462-8.545-18.071-11.847 11.134 8.348 21.139 18.74 28.653 29.804C91.972 199.465 92.066 200.003 93.475 200.708z"
           fill="#64b8d3"
           stroke-width="none"
           opacity="1"
           stroke="none"
           style="fill:#000000;fill-opacity:1" />
        <path
           id="SvgjsPath3087"
           d="M 193.414,189.487 C 184.863,184.427 170.065,181.025 150.873,178.708 151.136,176.227 151.324,174.448 151.327,174.421 144.219,171.961 136.319,151.948 126.455,150.761 119.152,195.648 114.733,180.316 111.09,200.001 110.428,203.58 108.237,232.53 108.125,233.918 105.551,233.921 102.976,233.924 100.4,233.928 100.947,215.966 94.08,201.844 93.66,200.934 92.783,197.816 88.111,192.939 86.014,189.896 80.577,181.989 78.104,174.806 75.152,166.356 75.152,166.356 74.67,154.721 73.49,150 67.549,152.726 68.434,156.065 59.511,166.499 56.988,169.436 53.563,170.669 50.225,172.669 50.052,174.568 50.026,176.374 50.09,178.121 15.813,182.47 8.35,190.078 4.201,191.903 1.261,201.426 -8.132,215.237 -8.22,235.745 21.409,235.745 25.844,236.146 115.262,235.826 129.131,235.767 142.995,235.692 156.866,235.603 177.343,235.483 205.535,236.07 205.535,236.07 205.536,214.739 200.869,201.902 193.414,189.487 Z M 117.634,186.921 C 124.619,173.235 124.619,169.985 127.314,151.298 135.768,154.12 143.505,172.25 150.434,174.485 145.495,200.001 148.171,209.864 148.524,215.839 145.949,214.453 143.965,213.188 141.463,211.691 133.742,207.062 128.397,201.452 120.205,198.108 117.986,197.172 114.797,198.567 112.845,200.002 113.922,190.583 115.012,192.058 117.634,186.921 Z M 119.286,198.722 C 119.288,198.707 119.291,198.695 119.293,198.681 119.565,198.637 119.409,198.677 119.286,198.722 Z M 112.756,202.773 C 113.145,200.795 116.13,199.658 117.619,199.152 115.693,207.71 113.173,219.232 113.124,233.914 L 109.375,233.917 C 109.483,232.632 111.173,210.838 112.756,202.773 Z M 98.931,233.931 C 98.141,233.932 97.352,233.934 96.562,233.935 97.673,221.134 90.957,210.125 87.869,200.897 88.675,200.815 91.079,200.161 91.744,200.275 93.387,201.514 100.999,221.875 98.931,233.931 Z M 60.03,167.448 C 69.576,156.47 67.587,153.782 72.873,150.552 73.204,153.702 73.468,156.875 73.634,160.058 74.197,171.321 72.695,163.628 77.126,175.235 83.639,192.293 89.462,193.753 92.444,199.602 81.869,198.861 80.326,206.794 70.813,209.965 62.058,213.412 64.459,211.809 52.44,218.701 55.798,194.882 50.7,183.865 50.7,173.13 54.159,171.341 57.48,170.367 60.03,167.448 Z M -6.797,234.569 C -5.13,213.902 2.907,200.547 6.203,193.236 10.848,190.25 26.229,182.311 50.124,178.842 50.46,185.44 52.049,191.211 52.177,197.772 52.415,204.048 52.39,211.852 51.924,219.504 56.374,217.462 60.649,215.027 65.604,213.246 79.409,208.24 77.038,207.135 83.647,202.572 85.23,201.468 84.991,201.454 86.369,201.109 88.934,209.096 97.031,220.006 95.176,233.936 59.931,234.008 24.849,234.226 -6.797,234.569 Z M 114.609,233.914 C 114.292,221.46 117.253,210.909 119.273,198.792 121.73829,198.8245 126.42361,202.28374 131.98709,206.33709 137.38,210.26617 143.59805,214.75349 149.419,217.219 149.69,213.01 149.244,204.243 149.244,194.486 149.24,194.196 150.155,185.492 150.773,179.644 162.05,182.883 180.344,182.914 192.614,191.626 197.536,201.069 203.465,211.674 203.869,234.236 175.918,234.002 145.432,233.899 114.609,233.914 Z"
           fill="#3295b4"
           stroke-width="none"
           opacity="1"
           stroke="none"
           style="fill:#000000;fill-opacity:1"
           sodipodi:nodetypes="ccccccccccccccccccccccccccccccccccccccccccccccccccccccccccccccscccccc" />
      </g>
      <g
         id="svga-group-head">
        <g
           id="svga-group-ears-left">
          <path
             id="SvgjsPath2906"
             d="M 45.671,84.344 C 44.186,81.882 39.344,75.145 35.64,76.09 32.628,76.862 32.667,81.061 32.434,83.545 32.094,87.189 31.97,93.537 32.959,96.113 33.91,98.586 36.919,103.365 38.787,105.188 41.086,107.423 44.757,114.546 45.209,115.285 45.92,116.453 47.346,118.125 49.534,117.993 52.605,117.808 52.077,115.154 52.318,113.756 53.619,106.166 49.536,90.75 45.671,84.344 Z"
             fill="#582812"
             stroke="#2a0d00"
             stroke-width="1.5"
             opacity="1"
             style="fill:none"
             sodipodi:nodetypes="ccccccccc" />
          <path
             id="SvgjsPath2907"
             d="M44.2 99.341c-0.143-0.563 0.007-1.513 0.154-2.429 0.133-0.835 0.258-1.624 0.182-2.182 -0.289-2.09-1.915-6.06-2.976-8.212 -1.223-2.476-3.199-5.595-5.679-6.399 -1.024-0.333-1.699 0.065-2.089 0.468 -0.288 0.296-0.353 0.645-0.259 0.687 0.095 0.041 0.307-0.248 0.617-0.519 0.254-0.222-0.508-0.04 0 0 -0.205 1.04-0.865 6.302-0.41 10.143 0.358 3.022 1.05 5.279 1.263 5.617 0.031 0.356 0.083 0.705 0.16 1.043 1.002 4.41 7.518 10.177 9.034 11.82 0.28 0.303 0.574 0.483 0.646 0.409s-0.101-0.373-0.379-0.678c-1.498-1.632-7.971-7.381-8.939-11.635 -1.027-4.514 3.912-11.207 4.699-12.623 0.401 0.665 0.742 1.303 1.004 1.835 0.207 0.417 0.434 0.906 0.67 1.435 -0.463 0.738-5.118 6.127-3.934 10.441 0.438 1.591 3.822 3.642 5.131 4.203 0.72 0.31 0.99 0.772 1.304 1.306 0.364 0.624 0.033 2.229 1.23 2.739 0.244 0.104 0.464 0.146 0.659 0.146 0.338 0 0.594-0.13 0.783-0.284 0.02 0.271 0.019 0.619 0.009 0.941 -0.012 0.418 0.047 0.609 0.148 0.617 0.103 0.009 0.21-0.174 0.223-0.587 0.017-0.51 0.014-1.141-0.077-1.444 -0.269-0.889-1.088-1.894-1.957-2.957C44.563 102.197 44.422 100.213 44.2 99.341zM34.969 95.432c-2.348-6.923 1.283-13.229 1.81-14.179 1.012 0.399 2.562 2.193 3.221 3.235C39.52 85.321 35.067 90.775 34.969 95.432zM45.772 106.464c-1.084-0.462-0.706-1.984-1.056-2.584 -0.318-0.542-0.646-1.102-1.479-1.46 -0.18-0.078-0.379-0.196-0.583-0.332 -2.682-6.075 0.293-8.73 1.039-9.273 0.229 0.742 0.399 1.423 0.476 1.97 0.068 0.5-0.059 1.298-0.181 2.068 -0.153 0.955-0.31 1.944-0.147 2.584 0.244 0.953 0.411 2.97 1.291 4.048 0.781 0.956 1.583 1.942 1.857 2.746C46.871 106.391 46.5 106.775 45.772 106.464z"
             fill="#2a0d00"
             stroke-width="none"
             opacity="1"
             stroke="none"
             style="stroke:#2a0d00;stroke-opacity:1;fill:none" />
        </g>
        <g
           id="svga-group-ears-right">
          <path
             id="SvgjsPath2908"
             d="M 154.066,84.344 C 155.552,81.882 160.394,75.145 164.097,76.09 167.109,76.862 167.07,81.061 167.304,83.545 167.644,87.189 167.767,93.537 166.779,96.113 165.828,98.586 162.818,103.365 160.951,105.188 158.652,107.423 154.98,114.546 154.529,115.285 153.818,116.453 152.392,118.125 150.203,117.993 147.133,117.808 148.322,115.142 148.08,113.744 146.78,106.154 150.203,90.75 154.066,84.344 Z"
             fill="#582812"
             stroke="#2a0d00"
             stroke-width="1.5"
             opacity="1"
             style="fill:none"
             sodipodi:nodetypes="ccccccccc" />
          <path
             id="SvgjsPath2909"
             d="M154.322 103.243c-0.869 1.063-1.688 2.068-1.957 2.957 -0.092 0.304-0.094 0.935-0.078 1.444 0.014 0.413 0.121 0.596 0.225 0.587 0.102-0.008 0.16-0.199 0.148-0.617 -0.01-0.322-0.012-0.67 0.008-0.941 0.189 0.154 0.445 0.284 0.783 0.284 0.195 0 0.416-0.042 0.66-0.146 1.195-0.511 0.865-2.116 1.229-2.739 0.314-0.534 0.584-0.997 1.305-1.306 1.309-0.561 4.693-2.611 5.131-4.203 1.184-4.314-3.471-9.704-3.934-10.441 0.234-0.529 0.463-1.018 0.668-1.435 0.264-0.532 0.604-1.171 1.006-1.835 0.787 1.416 5.725 8.108 4.699 12.623 -0.969 4.254-7.441 10.003-8.939 11.635 -0.279 0.305-0.453 0.604-0.381 0.678 0.074 0.074 0.367-0.106 0.646-0.409 1.516-1.643 8.031-7.41 9.033-11.82 0.078-0.338 0.131-0.687 0.162-1.043 0.211-0.337 0.904-2.594 1.262-5.617 0.455-3.841-0.205-9.103-0.41-10.143 0.508-0.04-0.254-0.222 0 0 0.311 0.271 0.523 0.56 0.617 0.519 0.094-0.042 0.029-0.39-0.258-0.687 -0.391-0.403-1.066-0.801-2.09-0.468 -2.48 0.804-4.457 3.923-5.68 6.399 -1.061 2.152-2.686 6.122-2.975 8.212 -0.076 0.558 0.049 1.347 0.182 2.182 0.146 0.916 0.297 1.866 0.154 2.429C155.316 100.213 155.176 102.197 154.322 103.243zM159.738 84.488c0.66-1.042 2.209-2.835 3.221-3.235 0.527 0.95 4.158 7.256 1.811 14.179C164.672 90.775 160.219 85.321 159.738 84.488zM152.75 106.229c0.273-0.804 1.076-1.79 1.857-2.746 0.879-1.078 1.047-3.095 1.291-4.048 0.162-0.64 0.006-1.629-0.146-2.584 -0.123-0.77-0.25-1.568-0.182-2.068 0.076-0.547 0.246-1.228 0.475-1.97 0.746 0.543 3.721 3.199 1.039 9.273 -0.203 0.136-0.402 0.254-0.584 0.332 -0.832 0.358-1.16 0.918-1.479 1.46 -0.35 0.6 0.029 2.123-1.055 2.584C153.238 106.775 152.867 106.391 152.75 106.229z"
             fill="#2a0d00"
             stroke-width="none"
             opacity="1"
             stroke="none"
             style="fill:none;stroke:#2a0d00;stroke-opacity:1" />
        </g>
        <g
           id="svga-group-faceshape-wrap">
          <g
             id="svga-group-faceshape-single">
            <path
               id="SvgjsPath3047"
               d="M100.002 0.867C66.384 0.92 39.082 28.536 39.134 62.56c0.009 5.403 0.704 10.643 2.002 15.634h0.001c0.012 0.054 8.341 20.48 10.463 33.205 2.38 14.276 10.462 30.232 16.302 35.786 6.052 5.756 20.281 14.682 32.099 14.682 11.267 0 26.046-8.926 32.099-14.682 5.84-5.554 13.922-21.51 16.302-35.786 2.122-12.725 10.452-33.151 10.463-33.205h0.002c1.298-4.992 1.994-10.231 2.002-15.634C160.923 28.536 133.62 0.92 100.002 0.867z"
               fill="#582812"
               stroke-width="none"
               opacity="1"
               stroke="none"
               style="fill:none" />
            <path
               id="SvgjsPath3048"
               d="M 136.901,13.53 C 149.767,24.848 152.87925,42.793458 152.85225,61.916458 152.84325,67.319458 157.266,71.711 156.031,76.703 H 156.03 C 156.019,76.757 148.091,97.183 146.071,109.908 143.804,124.185 136.112,140.141 130.554,145.694 124.793,151.451 110.726,160.377 100.002,160.377 88.753,160.377 75.21,151.451 69.45,145.694 63.892,140.141 56.2,124.185 53.934,109.908 51.914,97.184 43.986,76.758 43.975,76.703 H 43.974 C 42.738,71.711 42.076,66.472 42.068,61.069 42.04,41.947 50.236,24.851 63.101,13.532 48.519,24.809 39.104,42.574 39.134,62.56 39.143,67.963 39.838,73.203 41.136,78.194 H 41.137 C 41.149,78.248 49.478,98.674 51.6,111.399 53.98,125.675 62.062,141.631 67.902,147.185 73.954,152.941 88.183,161.867 100.001,161.867 111.268,161.867 126.047,152.941 132.1,147.185 137.94,141.631 145.7,128.02 148.08,113.744 150.202,101.019 151.646,77.189 154.48,78.68 L 152.258,75.261 C 153.556,70.269 152.84425,67.319458 152.85225,61.916458 152.88425,41.929458 151.485,24.806 136.901,13.53 Z"
               fill="#50220c"
               stroke-width="none"
               opacity="1"
               stroke="none"
               style="fill:#000000;fill-opacity:1"
               sodipodi:nodetypes="ccccccscccccccccccscccccc" />
          </g>
        </g>
        <g
           id="svga-group-mouth-single">
          <path
             id="SvgjsPath3014"
             d="M96.227 139.237l8.297-0.207C103.563 143.5 96.884 142.858 96.227 139.237z"
             fill="url(#SvgjsLinearGradient3015)"
             opacity="1" />
          <path
             id="SvgjsPath3018"
             d="M96.343 139.52c-0.371-0.05-0.315-0.579 0.08-0.542 0.043 0.006 4.308 0.546 7.878-0.215 0.386-0.075 0.5 0.455 0.13 0.534C101.634 139.895 98.015 139.755 96.343 139.52zM100.083 135.95c-1.503 0-2.96-0.521-4.424-0.776 -1.64-0.287-3.274-0.041-4.915 0.104 -1.676 0.149-5.333-0.013-6.365-0.666 -0.578-0.367-0.47-1.221 0.181-1.449 0.614-0.22 1.571 0.236 2.191 0.347 2.872 0.515 4.384-0.034 6.902-0.118 3.851-0.116 4.26 1.501 9.064 0.53 5.165-1.044 7.491-0.254 11.197-1.37 0.508-0.154 1.112-0.56 1.645-0.286 0.615 0.318 0.585 1.185-0.049 1.464 -3.406 1.502-7.174 0.895-10.955 1.526C103.073 135.502 101.596 135.95 100.083 135.95z"
             fill="#2a0d00"
             stroke-width="none"
             opacity="1"
             stroke="none" />
        </g>
        <g
           id="svga-group-eyes-left">
          <g
             id="svga-group-eyesback-left">
            <path
               id="SvgjsPath3142"
               d="M62.381 89.681c2.428 2.331 6.769 2.584 13.004 2.584 6.229 0 9.858-1.361 11.353-4.016 1.805-3.206-3.878-9.816-12.912-9.816C68.021 78.433 55.521 83.098 62.381 89.681z"
               fill="url(#SvgjsRadialGradient3143)"
               opacity="1" />
          </g>
          <g
             id="svga-group-eyesiriswrapper-left"
             transform="translate(0.5 1.5)">
            <g
               id="svga-group-eyesiriscontrol-left">
              <g
                 id="svga-group-eyesiris-left">
                <path
                   id="SvgjsPath3260"
                   d="M72.59 83.677l-4.437-1.012C68.056 83.095 68 83.54 68 83.999c0 0.459 0.057 0.905 0.154 1.334L74 83.999 72.59 83.677z"
                   fill="#ea2e2e"
                   stroke-width="none"
                   opacity="1" />
                <path
                   id="SvgjsPath3261"
                   d="M69.313 87.738c0.559 0.7 1.271 1.268 2.086 1.661l2.6-5.399L69.313 87.738z"
                   fill="#f09330"
                   stroke-width="none"
                   opacity="1" />
                <path
                   id="SvgjsPath3262"
                   d="M74 89.999c0.933 0 1.813-0.219 2.6-0.599L74 84 74 89.999z"
                   fill="#64398e"
                   stroke-width="none"
                   opacity="1" />
                <path
                   id="SvgjsPath3263"
                   d="M74 84l4.688 3.738c0.554-0.693 0.955-1.51 1.158-2.404L74 84z"
                   fill="#393b97"
                   stroke-width="none"
                   opacity="1" />
                <path
                   id="SvgjsPath3264"
                   d="M74 83.999l1.826-0.416 4.02-0.918c-0.203-0.894-0.604-1.711-1.158-2.404L74 83.999z"
                   fill="#00aa4f"
                   stroke-width="none"
                   opacity="1" />
                <path
                   id="SvgjsPath3265"
                   d="M76.6 78.598c-0.788-0.38-1.667-0.599-2.6-0.599v5.999L76.6 78.598z"
                   fill="#fae636"
                   stroke-width="none"
                   opacity="1" />
                <path
                   id="SvgjsPath3266"
                   d="M71.398 78.599c-0.814 0.393-1.527 0.961-2.086 1.662l4.687 3.738L71.398 78.599z"
                   fill="#9c2d91"
                   stroke-width="none"
                   opacity="1" />
                <path
                   id="SvgjsPath3267"
                   d="M74 83.999l5.846 1.334C79.943 84.904 80 84.458 80 83.999s-0.057-0.905-0.154-1.334l-4.02 0.918L74 83.999z"
                   fill="#ea2e2e"
                   stroke-width="none"
                   opacity="1" />
                <path
                   id="SvgjsPath3268"
                   d="M74 83.999L74 83.999 74 83.999l2.601 5.401c0.815-0.394 1.528-0.962 2.087-1.662L74 83.999 74 83.999z"
                   fill="#9b328d"
                   stroke-width="none"
                   opacity="1" />
                <path
                   id="SvgjsPath3269"
                   d="M74 84L74 84 74 84 74 84 74 84 74 84 74 84l-2.6 5.4c0.787 0.38 1.667 0.599 2.6 0.599h0L74 84 74 84z"
                   fill="#fde92b"
                   stroke-width="none"
                   opacity="1" />
                <path
                   id="SvgjsPath3270"
                   d="M74 84L74 84 74 84 74 84 74 84 74 84 74 84 74 84 74 84 74 84 74 84l-5.845 1.334c0.203 0.894 0.605 1.712 1.158 2.405L74 84 74 84z"
                   fill="#00aa4f"
                   stroke-width="none"
                   opacity="1" />
                <path
                   id="SvgjsPath3271"
                   d="M74 83.999L74 83.999 74 83.999 74 83.999 74 83.999 74 83.999 74 83.999v-6c-0.934 0-1.813 0.219-2.601 0.599L74 83.999 74 83.999z"
                   fill="#65378f"
                   stroke-width="none"
                   opacity="1" />
                <path
                   id="SvgjsPath3272"
                   d="M74 83.999L74 83.999 74 83.999l4.688-3.739c-0.559-0.7-1.272-1.269-2.087-1.662L74 83.999 74 83.999z"
                   fill="#ec9236"
                   stroke-width="none"
                   opacity="1" />
                <path
                   id="SvgjsPath3273"
                   d="M74 83.999L74 83.999l-4.688-3.739c-0.554 0.693-0.955 1.511-1.158 2.404l4.436 1.013L74 83.999z"
                   fill="#393b97"
                   stroke-width="none"
                   opacity="1" />
                <path
                   id="SvgjsPath3274"
                   d="M74 77.999c3.314 0 6 2.686 6 6s-2.686 6-6 6 -6-2.686-6-6S70.686 77.999 74 77.999z"
                   fill="#000000"
                   stroke-width="none"
                   opacity="0.3" />
                <path
                   id="SvgjsPath3275"
                   d="M76.333 83.999c0 1.289-1.044 2.333-2.333 2.333s-2.333-1.045-2.333-2.333 1.044-2.333 2.333-2.333S76.333 82.71 76.333 83.999z"
                   fill="#000000"
                   stroke-width="none"
                   opacity="1" />
                <path
                   id="SvgjsPath3276"
                   d="M71.769 88.072c-0.313 0.313-0.931 0.202-1.38-0.246 -0.449-0.449-0.56-1.067-0.246-1.38 0.313-0.313 0.93-0.203 1.379 0.246C71.971 87.141 72.082 87.759 71.769 88.072z"
                   fill="#ffffff"
                   stroke-width="none"
                   opacity="0.6" />
                <path
                   id="SvgjsPath3277"
                   d="M78.539 82.884c-0.468 0.469-1.602 0.094-2.533-0.836s-1.305-2.065-0.837-2.533c0.469-0.469 1.604-0.095 2.533 0.836C78.633 81.281 79.008 82.416 78.539 82.884z"
                   fill="#ffffff"
                   stroke-width="none"
                   opacity="0.9" />
              </g>
            </g>
          </g>
          <g
             id="svga-group-eyesfront-left">
            <path
               id="SvgjsPath3167"
               d="M54.8 79.995c0 13.807 8.507 30.004 19 30.004s19-11.193 19-25 -8.507-25-19-25S54.8 66.188 54.8 79.995zM62.381 89.681c-6.859-6.583 5.641-11.248 11.444-11.248 9.034 0 14.717 6.61 12.912 9.816 -1.494 2.654-5.123 4.016-11.353 4.016C69.149 92.265 64.809 92.011 62.381 89.681z"
               fill="#582812"
               stroke-width="none"
               opacity="1"
               style="fill:none" />
            <path
               id="SvgjsPath3168"
               d="M58.697 84.55c-0.075 7.456 8.647 13.464 18.038 13.428 9.389-0.043 16.987-6.116 16.962-13.573 -0.023-7.456-7.647-13.465-17.04-13.426C67.265 71.021 58.799 74.35 58.697 84.55zM73.825 78.633c9.034 0 14.718 6.542 12.912 9.716 -1.494 2.627-5.123 3.975-11.353 3.975 -6.235 0-10.576-0.251-13.005-2.558C55.521 83.25 68.021 78.633 73.825 78.633z"
               fill="url(#SvgjsRadialGradient3169)"
               opacity="1" />
            <path
               id="SvgjsPath3173"
               d="M62.381 89.681c2.428 2.331 6.769 2.584 13.004 2.584 6.229 0 9.858-1.361 11.353-4.016 1.805-3.206-3.878-9.816-12.912-9.816C68.021 78.433 55.521 83.098 62.381 89.681z"
               fill="url(#SvgjsRadialGradient3174)"
               opacity="1" />
            <path
               id="SvgjsPath3177"
               d="M89.188 82.843c0.345-0.344-4.745-7.529-13.379-7.832 -9.13-0.319-16.789 6.017-16.789 6.017s8.302-6.009 16.569-5.565C85.2 75.98 88.916 83.114 89.188 82.843z"
               fill="#2a0d00"
               stroke-width="none"
               opacity="1" />
            <path
               id="SvgjsPath3178"
               d="M86.479 88.878l0.335-2.293c-3.319-8.705-15.518-11.145-25.718-2.11 -0.359 0.462-0.768 0.821-0.468 1.832l2.711 4.484c-2.466-2.355-3.742-4.143-4.917-5.817l-0.952-0.498c12.896-12.359 27.1-9.455 31.717 1.537l-1.12-0.167L86.479 88.878zM82.57 91.345c-4.308 0.56-7.537 1.078-13.275 0.76C72.953 92.963 78.842 92.698 82.57 91.345z"
               fill="#000000"
               stroke-width="none"
               opacity="1" />
          </g>
        </g>
        <g
           id="svga-group-eyes-right">
          <g
             id="svga-group-eyesback-right">
            <path
               id="SvgjsPath3150"
               d="M137.22 89.681c-2.428 2.331-6.769 2.584-13.004 2.584 -6.229 0-9.858-1.361-11.353-4.016 -1.805-3.206 3.878-9.816 12.912-9.816C131.579 78.433 144.079 83.098 137.22 89.681z"
               fill="url(#SvgjsRadialGradient3151)"
               opacity="1" />
          </g>
          <g
             id="svga-group-eyesiriswrapper-right"
             transform="translate(-0.5 1.5)">
            <g
               id="svga-group-eyesiriscontrol-right">
              <g
                 id="svga-group-eyesiris-right">
                <path
                   id="SvgjsPath3278"
                   d="M124.591 83.677l-4.438-1.012c-0.098 0.43-0.153 0.875-0.153 1.334 0 0.459 0.057 0.905 0.154 1.334l5.845-1.334L124.591 83.677z"
                   fill="#ea2e2e"
                   stroke-width="none"
                   opacity="1" />
                <path
                   id="SvgjsPath3279"
                   d="M121.313 87.738c0.559 0.7 1.272 1.268 2.086 1.661L125.999 84 121.313 87.738z"
                   fill="#f09330"
                   stroke-width="none"
                   opacity="1" />
                <path
                   id="SvgjsPath3280"
                   d="M126.001 89.999c0.933 0 1.813-0.219 2.6-0.599L126 84 126.001 89.999z"
                   fill="#64398e"
                   stroke-width="none"
                   opacity="1" />
                <path
                   id="SvgjsPath3281"
                   d="M126 84l4.688 3.738c0.553-0.693 0.953-1.51 1.157-2.404L126 84z"
                   fill="#393b97"
                   stroke-width="none"
                   opacity="1" />
                <path
                   id="SvgjsPath3282"
                   d="M126 83.999l1.825-0.416 4.021-0.918c-0.204-0.894-0.604-1.711-1.157-2.404L126 83.999z"
                   fill="#00aa4f"
                   stroke-width="none"
                   opacity="1" />
                <path
                   id="SvgjsPath3283"
                   d="M128.601 78.598c-0.788-0.38-1.668-0.599-2.601-0.599v5.999L128.601 78.598z"
                   fill="#fae636"
                   stroke-width="none"
                   opacity="1" />
                <path
                   id="SvgjsPath3284"
                   d="M123.398 78.599c-0.813 0.393-1.527 0.961-2.087 1.662l4.688 3.738L123.398 78.599z"
                   fill="#9c2d91"
                   stroke-width="none"
                   opacity="1" />
                <path
                   id="SvgjsPath3285"
                   d="M126 83.999l5.846 1.334c0.098-0.43 0.154-0.875 0.154-1.334s-0.057-0.905-0.154-1.334l-4.021 0.918L126 83.999z"
                   fill="#ea2e2e"
                   stroke-width="none"
                   opacity="1" />
                <path
                   id="SvgjsPath3286"
                   d="M126 83.999L126 83.999 126 83.999l2.601 5.401c0.814-0.394 1.529-0.962 2.088-1.662L126 83.999 126 83.999z"
                   fill="#9b328d"
                   stroke-width="none"
                   opacity="1" />
                <path
                   id="SvgjsPath3287"
                   d="M126 84L126 84 126 84 126 84 126 84 126 84 126 84l-2.601 5.4c0.787 0.38 1.668 0.599 2.601 0.599h0.001L126 84 126 84z"
                   fill="#fde92b"
                   stroke-width="none"
                   opacity="1" />
                <path
                   id="SvgjsPath3288"
                   d="M125.999 84L125.999 84 125.999 84 125.999 84 125.999 84 125.999 84 125.999 84 125.999 84 125.999 84 125.999 84 125.999 84l-5.845 1.334c0.204 0.894 0.604 1.712 1.158 2.405L125.999 84 125.999 84z"
                   fill="#00aa4f"
                   stroke-width="none"
                   opacity="1" />
                <path
                   id="SvgjsPath3289"
                   d="M126 83.999L126 83.999 126 83.999 126 83.999 126 83.999 126 83.999 126 83.999v-6c-0.934 0-1.813 0.219-2.601 0.599L126 83.999 126 83.999z"
                   fill="#65378f"
                   stroke-width="none"
                   opacity="1" />
                <path
                   id="SvgjsPath3290"
                   d="M126 83.999L126 83.999 126 83.999l4.688-3.739c-0.559-0.7-1.273-1.269-2.088-1.662L126 83.999 126 83.999z"
                   fill="#ec9236"
                   stroke-width="none"
                   opacity="1" />
                <path
                   id="SvgjsPath3291"
                   d="M125.999 83.999L125.999 83.999l-4.688-3.739c-0.553 0.693-0.953 1.511-1.157 2.404l4.437 1.013L125.999 83.999z"
                   fill="#393b97"
                   stroke-width="none"
                   opacity="1" />
                <path
                   id="SvgjsPath3292"
                   d="M126 77.999c3.313 0 6 2.686 6 6s-2.687 6-6 6 -6-2.686-6-6S122.687 77.999 126 77.999z"
                   fill="#000000"
                   stroke-width="none"
                   opacity="0.3" />
                <path
                   id="SvgjsPath3293"
                   d="M128.333 83.999c0 1.289-1.044 2.333-2.333 2.333s-2.333-1.045-2.333-2.333 1.044-2.333 2.333-2.333S128.333 82.71 128.333 83.999z"
                   fill="#000000"
                   stroke-width="none"
                   opacity="1" />
                <path
                   id="SvgjsPath3294"
                   d="M123.769 88.072c-0.313 0.313-0.93 0.202-1.379-0.246 -0.449-0.449-0.561-1.067-0.246-1.38 0.313-0.313 0.93-0.203 1.379 0.246C123.971 87.141 124.081 87.759 123.769 88.072z"
                   fill="#ffffff"
                   stroke-width="none"
                   opacity="0.6" />
                <path
                   id="SvgjsPath3295"
                   d="M130.539 82.884c-0.468 0.469-1.603 0.094-2.533-0.836s-1.305-2.064-0.837-2.533c0.469-0.469 1.604-0.095 2.533 0.836C130.633 81.281 131.008 82.416 130.539 82.884z"
                   fill="#ffffff"
                   stroke-width="none"
                   opacity="0.9" />
              </g>
            </g>
          </g>
          <g
             id="svga-group-eyesfront-right">
            <path
               id="SvgjsPath3188"
               d="M125.801 59.999c-10.493 0-19 11.193-19 25s8.507 25 19 25 19-15.513 19-29.319S136.294 59.999 125.801 59.999zM124.216 92.265c-6.229 0-9.858-1.361-11.353-4.016 -1.805-3.206 3.878-9.816 12.912-9.816 5.804 0 18.304 4.665 11.444 11.248C134.792 92.011 130.451 92.265 124.216 92.265z"
               fill="#582812"
               stroke-width="none"
               opacity="1"
               style="fill:none" />
            <path
               id="SvgjsPath3189"
               d="M122.943 70.979c-9.393-0.039-17.017 5.971-17.04 13.426 -0.025 7.458 7.573 13.53 16.962 13.573 9.391 0.037 18.113-5.972 18.038-13.428C140.802 74.35 132.336 71.021 122.943 70.979zM137.221 89.766c-2.429 2.307-6.77 2.558-13.005 2.558 -6.229 0-9.858-1.348-11.353-3.975 -1.806-3.173 3.878-9.716 12.912-9.716C131.579 78.633 144.08 83.25 137.221 89.766z"
               fill="url(#SvgjsRadialGradient3190)"
               opacity="1" />
            <path
               id="SvgjsPath3194"
               d="M137.22 89.681c-2.428 2.331-6.769 2.584-13.004 2.584 -6.229 0-9.858-1.361-11.353-4.016 -1.805-3.206 3.878-9.816 12.912-9.816C131.579 78.433 144.079 83.098 137.22 89.681z"
               fill="url(#SvgjsRadialGradient3195)"
               opacity="1" />
            <path
               id="SvgjsPath3198"
               d="M110.413 82.843c-0.345-0.344 4.745-7.529 13.379-7.832 9.13-0.319 16.789 6.017 16.789 6.017s-8.302-6.009-16.569-5.565C114.4 75.98 110.685 83.114 110.413 82.843z"
               fill="#2a0d00"
               stroke-width="none"
               opacity="1" />
            <path
               id="SvgjsPath3199"
               d="M111.533 85.845l-1.12 0.167c4.617-10.991 18.82-13.896 31.717-1.537l-0.952 0.498c-1.175 1.674-2.451 3.462-4.917 5.817l2.711-4.484c0.3-1.01-0.108-1.37-0.468-1.832 -10.2-9.035-22.398-6.595-25.718 2.11l0.335 2.293L111.533 85.845zM130.306 92.104c-5.738 0.318-8.968-0.2-13.275-0.76C120.759 92.698 126.647 92.963 130.306 92.104z"
               fill="#000000"
               stroke-width="none"
               opacity="1" />
          </g>
        </g>
        <g
           id="svga-group-facehighlight-single">
          <path
             id="SvgjsPath2885"
             d="M141 113.974c0.035 22.622-18.292 40.994-40.938 41.025 -22.642 0.037-41.028-18.273-41.063-40.9 -0.035-22.62 18.292-41.064 40.937-41.1C122.579 72.964 140.967 91.349 141 113.974z"
             fill="url(#SvgjsRadialGradient2886)"
             opacity="1"
             style="fill:none" />
          <path
             id="SvgjsPath2889"
             d="M137.5 53.999c0 20.711-16.789 37.5-37.499 37.5 -20.711 0-37.501-16.789-37.501-37.5s16.79-37.5 37.501-37.5C120.711 16.499 137.5 33.288 137.5 53.999z"
             fill="url(#SvgjsRadialGradient2890)"
             opacity="1"
             style="fill:none" />
        </g>
        <g
           id="svga-group-eyebrows-left">
          <path
             id="SvgjsPath3302"
             d="M52.488 73.87c7.475-9.383 20.338-7.822 30.878-6.314 2.681 0.384 5.441 0.672 8.07 1.336 1.884 0.475 3.365 2.622 1.851 4.356 -0.708 0.825-2.253 0.672-3.207 0.652C77.459 73.645 63.193 66.387 52.488 73.87z"
             fill="#2a232b"
             stroke-width="none"
             opacity="1" />
        </g>
        <g
           id="svga-group-eyebrows-right">
          <path
             id="SvgjsPath3303"
             d="M147.577 73.49c-2.164-1.448-4.454-2.47-7.043-2.889 -9.497-1.54-27.586 4.79-32.341 3.45 -2.912-0.822-2.323-3.739-1.035-4.458 0.775-0.433 0.99-0.422 7.909-1.612C126.824 65.961 139.988 64.355 147.577 73.49z"
             fill="#2a232b"
             stroke-width="none"
             opacity="1" />
        </g>
        <g
           id="svga-group-nose-single">
          <path
             id="SvgjsPath3023"
             d="M91.115 115.499c-0.878 2.064 5.934 4.292 8.519 4.429 2.8 0.147 10.646-2.9 9.316-4.992 -1.399-2.195-6.643-0.286-8.906-0.286C97.792 114.649 92.291 112.745 91.115 115.499z"
             fill="#491c08"
             stroke-width="none"
             opacity="1"
             stroke="none" />
          <path
             id="SvgjsPath3024"
             d="M101.857 117.058c-0.23-0.759 1.876-1.584 2.657-1.694 1.101-0.16 3.36 0.802 3.158 1.592 -0.184 0.698-2.148-0.533-2.86-0.429C104.078 116.634 102.075 117.769 101.857 117.058zM94.974 116.811c0.968 0 2.404 0.623 2.668 0.074 0.315-0.655-2.139-1.461-2.86-1.372 -0.596 0.07-2.733 1.315-2.439 1.839C92.617 117.833 93.698 116.811 94.974 116.811z"
             fill="#2a0d00"
             stroke-width="none"
             opacity="1"
             stroke="none"
             style="fill:#000000;fill-opacity:1" />
        </g>
        <g
           id="svga-group-beardwrap">
          <g
             id="svga-group-beard-single">
            <path
               id="SvgjsPath3021"
               d="M100,18.13L100,18.13L100,18.13L100,18.13z"
               fill="#2a232b"
               stroke-width="none"
               opacity="1" />
          </g>
        </g>
        <g
           id="svga-group-mustache-single">
          <path
             id="SvgjsPath3019"
             d="M100,18.13L100,18.13L100,18.13L100,18.13z"
             fill="#2a232b"
             stroke-width="none"
             opacity="1" />
        </g>
        <g
           id="svga-group-hair-front">
          <path
             id="SvgjsPath3074"
             d="M162.973 40.273C147.94-14.754 61.012-21.557 36.378 40.045c-11.02 27.558 15.94 73.711 15.94 73.711 -0.962-6.957-4.86-37.856-4.86-37.856 0-2 1.915-4.507 2.272-5.973 1.718-7.055-4.882-16.666-2.272-28.859 2.222-10.38 5.558-17.637 15.408-23.673 13.231-8.108 20.458 5.525 26.34 9.323 4.617 2.98 17.091 3.121 21.972 0.597 6.122-3.166 14.95-14.205 24.761-11.017 11.622 3.776 16.601 19.828 17.03 22.789 0.916 8.798-4.469 26.247-2.699 30.84 0.504 1.309 1.617 3.689 1.898 4.807 1.16 4.612-4.088 39.009-4.088 39.009S170.468 67.708 162.973 40.273z"
             fill="#2a232b"
             stroke-width="none"
             opacity="1"
             style="stroke:none;fill:none" />
          <path
             id="SvgjsPath3075"
             d="M 137.697,13.5 C 127.979,8.857 119,17 110,23 96.227,30.069 89,18 78,13 69,8 57,16 50,25 39.76,40.824 38.826254,54.036441 42.602254,70.787441 45.671,84.344 58.6584,104.48918 43.975,76.703 34.976929,54.118685 35.684262,78.211067 39.983237,62.72361 41.701237,55.66861 41.457169,53.261 44.067169,41.068 46.289169,30.688 53.015,23.431 62.865,17.395 76.096,9.287 83.323,22.92 89.205,26.718 93.822,29.698 106.296,29.839 111.177,27.315 117.299,24.149 126.127,13.11 135.938,16.298 147.56,20.074 149.99663,36.973458 150.42563,39.934458 151.34163,48.732458 148.499,65.334 150.269,69.927 150.773,71.236 151.886,73.616 152.167,74.734 152.204,74.88 152.233,75.057 152.258,75.261 152.259,75.245 152.261,75.229 152.263,75.214 152.803,80.048 150.097,99.888 148.774,109.038 152.764,90.998 157.223,74.445 153.129,67.687 156.869,45.402 161.567,24.902 137.697,13.5 Z"
             fill="#1b141c"
             stroke-width="none"
             opacity="1"
             sodipodi:nodetypes="cccccccccccccccccccc" />
          <path
             id="SvgjsPath3076"
             d="M 154.066,84.344 C 162.725,62.784 165.891,65.427 161.262,41.236 159.905,36.428 157.795,28.658 148.928,18.773 115.737,-18.332 59.483,-6.218 39.958,35.8 28.541,60.204 53.013254,105.12453 45.671,84.344 41.136,78.194 35.624,80.813 33.567,59.656 32.945,52.577 34.285,43.164 38.066,34.788 53.26,1.225 92.456,-14.792 125.415,-1.075 138.674,4.253 153.3,16.031 160.445,31.818 165.327,42.646 164.694,52.325 163.626,64.239 162.855,70.73 164.2,62.468 163.626,64.239 161.082,72.606 167.758,52.488 163.626,64.239 158.867,78.194 156.628,78.587 154.066,84.344 Z"
             fill="#000000"
             stroke-width="none"
             opacity="1"
             sodipodi:nodetypes="ccccccccccccc" />
        </g>
        <g
           id="svga-group-glasses-single">
          <path
             id="SvgjsPath3320"
             d="M91.69 89.23c-3.71 7.46-14.12 8.15-17.78 8.15H61.79c-5.75 0-10.86-7.99-10.86-14.29v-6.16c0-0.23 0.11-0.46 0.29-0.7L91.69 89.23zM110.37 76.65c-2.07 1.43-3.39 3.35-3.39 5.92v0.5c0 2.44 0.5 4.47 1.34 6.15 3.71 7.46 14.12 8.15 17.78 8.15h12.12c4.09 0 7.85-4.05 9.68-8.66L110.37 76.65z"
             fill="#ffffff"
             stroke-width="none"
             opacity="0.2" />
          <path
             id="SvgjsPath3321"
             d="M91.69 89.23L51.21 76.22c0.99-1.32 4.4-2.7 6.15-2.91 2.18-0.26 6.63-0.69 11.94-0.69 8.86 0 23.72 1.29 23.72 9.96v0.5C93.02 85.52 92.52 87.55 91.69 89.23zM149.07 83.08v-6.16c0-0.23-0.11-0.46-0.29-0.7 -0.99-1.32-4.4-2.7-6.15-2.91 -2.18-0.26-6.63-0.69-11.94-0.69 -6.23 0-15.41 0.64-20.33 4.03l37.53 12.06C148.64 86.85 149.07 84.9 149.07 83.08z"
             fill="#ffffff"
             stroke-width="none"
             opacity="0.4" />
          <path
             id="SvgjsPath3322"
             d="M149.73 78.68v-1.76c0-2.1-4.9-3.99-7.01-4.25 -9.42-1.12-31.52-2.02-35.7 6.76 -2.78-0.92-5.88-1.28-7.02-1.29 -1.14 0.01-4.24 0.37-7.02 1.29 -4.17-8.77-26.27-7.88-35.7-6.76 -2.11 0.25-7.01 2.14-7.01 4.25v1.76H45.5v2.36h4.77v2.04c0 6.3 5.15 14.94 11.51 14.94h12.12c8.33 0 19.76-3.13 19.76-14.94v-0.5c0-0.76-0.1-1.46-0.29-2.12 3.46-1.07 5.55-1.29 6.62-1.31 1.07 0.01 3.16 0.24 6.62 1.31 -0.19 0.66-0.29 1.36-0.29 2.12v0.5c0 11.81 11.44 14.94 19.76 14.94h12.12c6.36 0 11.51-8.64 11.51-14.94v-2.04h4.77v-2.36H149.73zM92.86 83.08c0 13.11-14.5 14.13-18.95 14.13H61.79c-5.66 0-10.7-7.9-10.7-14.13v-6.16c0-1.31 4.09-3.18 6.29-3.44 2.17-0.26 6.62-0.69 11.92-0.69 8.8 0 23.55 1.27 23.55 9.79V83.08zM148.91 83.08c0 6.23-5.04 14.13-10.7 14.13h-12.12c-4.45 0-18.95-1.02-18.95-14.13v-0.5c0-8.52 14.76-9.79 23.55-9.79 5.31 0 9.75 0.43 11.92 0.69 2.2 0.26 6.3 2.13 6.3 3.44V83.08z"
             fill="#26120b"
             stroke-width="none"
             opacity="1" />
        </g>
      </g>
    </g>
    <rect
       id="SvgjsRect1036"
       width="200"
       height="15"
       x="0"
       y="185"
       fill="#ecf0f1"
       opacity="0.5"
       style="display:none" />
    <text
       id="SvgjsText1037"
       font-family="&quot;Roboto&quot;, &quot;Helvetica Neue&quot;, Helvetica, Arial, sans-serif"
       style="font-size:0.84em;font-family:'Roboto', 'Helvetica Neue', Helvetica, Arial, sans-serif;text-anchor:middle;font-weight:400;display:none"
       font-size="0.84em"
       text-anchor="middle"
       font-weight="400"
       fill="#000000"
       x="100"
       y="185"><tspan
         id="SvgjsTspan1038"
         dy="1.2em"
         x="100"
         style="font-size:0.84em;font-family:'Roboto', 'Helvetica Neue', Helvetica, Arial, sans-serif;text-anchor:middle;font-weight:400">Created on AvatarMaker.com</tspan></text>
  </g>
  <defs
     id="SvgjsDefs1001">
    <radialGradient
       id="SvgjsRadialGradient2886"
       cx="100"
       cy="114"
       r="41"
       gradientUnits="userSpaceOnUse"
       class="svga-on-canvas-facehighlight-gradient-single-0">
      <stop
         id="SvgjsStop2887"
         stop-opacity="0.5"
         stop-color="#67361f"
         offset="0" />
      <stop
         id="SvgjsStop2888"
         stop-opacity="0"
         stop-color="#582812"
         offset="0.9" />
    </radialGradient>
    <radialGradient
       id="SvgjsRadialGradient2890"
       cx="100"
       cy="54"
       r="37"
       gradientUnits="userSpaceOnUse"
       class="svga-on-canvas-facehighlight-gradient-single-1">
      <stop
         id="SvgjsStop2891"
         stop-opacity="0.5"
         stop-color="#67361f"
         offset="0" />
      <stop
         id="SvgjsStop2892"
         stop-opacity="0"
         stop-color="#582812"
         offset="0.9" />
    </radialGradient>
    <linearGradient
       id="SvgjsLinearGradient3015"
       x1="100"
       y1="142"
       x2="100"
       y2="139"
       gradientUnits="userSpaceOnUse"
       class="svga-on-canvas-mouth-gradient-single-0">
      <stop
         id="SvgjsStop3016"
         stop-opacity="1"
         stop-color="#50220c"
         offset="0.1" />
      <stop
         id="SvgjsStop3017"
         stop-opacity="1"
         stop-color="#491c08"
         offset="1" />
    </linearGradient>
    <linearGradient
       id="SvgjsLinearGradient3051"
       x1="100"
       y1="172"
       x2="100"
       y2="122"
       gradientUnits="userSpaceOnUse"
       class="svga-on-canvas-chinshadow-gradient-single-0">
      <stop
         id="SvgjsStop3052"
         stop-opacity="0.8"
         stop-color="#491c08"
         offset="0" />
      <stop
         id="SvgjsStop3053"
         stop-opacity="1"
         stop-color="#2a0d00"
         offset="0.7" />
    </linearGradient>
    <radialGradient
       id="SvgjsRadialGradient3143"
       cx="126.275"
       cy="85.349"
       r="10.629"
       gradientTransform="matrix(-1 0 0 1 200 0)"
       gradientUnits="userSpaceOnUse"
       class="svga-on-canvas-eyesback-gradient-left-0">
      <stop
         id="SvgjsStop3144"
         stop-opacity="1"
         stop-color="#ffffff"
         offset="0" />
      <stop
         id="SvgjsStop3145"
         stop-opacity="1"
         stop-color="#fdfefe"
         offset="0.544" />
      <stop
         id="SvgjsStop3146"
         stop-opacity="1"
         stop-color="#f6f8f9"
         offset="0.74" />
      <stop
         id="SvgjsStop3147"
         stop-opacity="1"
         stop-color="#eaeff2"
         offset="0.879" />
      <stop
         id="SvgjsStop3148"
         stop-opacity="1"
         stop-color="#d9e3e8"
         offset="0.992" />
      <stop
         id="SvgjsStop3149"
         stop-opacity="1"
         stop-color="#d8e2e7"
         offset="1" />
    </radialGradient>
    <radialGradient
       id="SvgjsRadialGradient3151"
       cx="125.875"
       cy="85.349"
       r="10.629"
       gradientUnits="userSpaceOnUse"
       class="svga-on-canvas-eyesback-gradient-right-0">
      <stop
         id="SvgjsStop3152"
         stop-opacity="1"
         stop-color="#ffffff"
         offset="0" />
      <stop
         id="SvgjsStop3153"
         stop-opacity="1"
         stop-color="#fdfefe"
         offset="0.544" />
      <stop
         id="SvgjsStop3154"
         stop-opacity="1"
         stop-color="#f6f8f9"
         offset="0.74" />
      <stop
         id="SvgjsStop3155"
         stop-opacity="1"
         stop-color="#eaeff2"
         offset="0.879" />
      <stop
         id="SvgjsStop3156"
         stop-opacity="1"
         stop-color="#d9e3e8"
         offset="0.992" />
      <stop
         id="SvgjsStop3157"
         stop-opacity="1"
         stop-color="#d8e2e7"
         offset="1" />
    </radialGradient>
    <radialGradient
       id="SvgjsRadialGradient3159"
       cx="126.275"
       cy="85.349"
       r="10.629"
       gradientTransform="matrix(-1 0 0 1 200 0)"
       gradientUnits="userSpaceOnUse"
       class="svga-on-canvas-eyesfront-gradient-left-0">
      <stop
         id="SvgjsStop3160"
         stop-opacity="1"
         stop-color="#ffffff"
         offset="0" />
      <stop
         id="SvgjsStop3161"
         stop-opacity="1"
         stop-color="#fdfefe"
         offset="0.544" />
      <stop
         id="SvgjsStop3162"
         stop-opacity="1"
         stop-color="#f6f8f9"
         offset="0.74" />
      <stop
         id="SvgjsStop3163"
         stop-opacity="1"
         stop-color="#eaeff2"
         offset="0.879" />
      <stop
         id="SvgjsStop3164"
         stop-opacity="1"
         stop-color="#d9e3e8"
         offset="0.992" />
      <stop
         id="SvgjsStop3165"
         stop-opacity="1"
         stop-color="#d8e2e7"
         offset="1" />
    </radialGradient>
    <radialGradient
       id="SvgjsRadialGradient3169"
       cx="123.715"
       cy="83.955"
       fx="135.822"
       fy="83.989"
       r="17.219"
       gradientTransform="matrix(0.9998 0.0206 0.0166 -0.7916 -48.8004 147.8581)"
       gradientUnits="userSpaceOnUse"
       class="svga-on-canvas-eyesfront-gradient-left-3">
      <stop
         id="SvgjsStop3170"
         stop-opacity="1"
         stop-color="#491c08"
         offset="0" />
      <stop
         id="SvgjsStop3171"
         stop-opacity="0.3"
         stop-color="#491c08"
         offset="0.7" />
      <stop
         id="SvgjsStop3172"
         stop-opacity="0"
         stop-color="#582812"
         offset="1" />
    </radialGradient>
    <radialGradient
       id="SvgjsRadialGradient3174"
       cx="123.018"
       cy="104.865"
       r="27.497"
       gradientTransform="matrix(-0.9336 -0.3584 -0.3046 0.7935 223.7724 65.7356)"
       gradientUnits="userSpaceOnUse"
       class="svga-on-canvas-eyesfront-gradient-left-4">
      <stop
         id="SvgjsStop3175"
         stop-opacity="0"
         stop-color="#000000"
         offset="0.95" />
      <stop
         id="SvgjsStop3176"
         stop-opacity="0.2"
         stop-color="#000000"
         offset="1" />
    </radialGradient>
    <radialGradient
       id="SvgjsRadialGradient3180"
       cx="125.875"
       cy="85.349"
       r="10.629"
       gradientUnits="userSpaceOnUse"
       class="svga-on-canvas-eyesfront-gradient-right-0">
      <stop
         id="SvgjsStop3181"
         stop-opacity="1"
         stop-color="#ffffff"
         offset="0" />
      <stop
         id="SvgjsStop3182"
         stop-opacity="1"
         stop-color="#fdfefe"
         offset="0.544" />
      <stop
         id="SvgjsStop3183"
         stop-opacity="1"
         stop-color="#f6f8f9"
         offset="0.74" />
      <stop
         id="SvgjsStop3184"
         stop-opacity="1"
         stop-color="#eaeff2"
         offset="0.879" />
      <stop
         id="SvgjsStop3185"
         stop-opacity="1"
         stop-color="#d9e3e8"
         offset="0.992" />
      <stop
         id="SvgjsStop3186"
         stop-opacity="1"
         stop-color="#d8e2e7"
         offset="1" />
    </radialGradient>
    <radialGradient
       id="SvgjsRadialGradient3190"
       cx="123.315"
       cy="83.955"
       fx="135.422"
       fy="83.989"
       r="17.219"
       gradientTransform="matrix(-0.9998 0.0206 -0.0166 -0.7916 248.0017 147.8663)"
       gradientUnits="userSpaceOnUse"
       class="svga-on-canvas-eyesfront-gradient-right-3">
      <stop
         id="SvgjsStop3191"
         stop-opacity="1"
         stop-color="#491c08"
         offset="0" />
      <stop
         id="SvgjsStop3192"
         stop-opacity="0.3"
         stop-color="#491c08"
         offset="0.7" />
      <stop
         id="SvgjsStop3193"
         stop-opacity="0"
         stop-color="#582812"
         offset="1" />
    </radialGradient>
    <radialGradient
       id="SvgjsRadialGradient3195"
       cx="122.617"
       cy="104.865"
       r="27.498"
       gradientTransform="matrix(0.9336 -0.3584 0.3046 0.7935 -23.799 65.5921)"
       gradientUnits="userSpaceOnUse"
       class="svga-on-canvas-eyesfront-gradient-right-4">
      <stop
         id="SvgjsStop3196"
         stop-opacity="0"
         stop-color="#000000"
         offset="0.95" />
      <stop
         id="SvgjsStop3197"
         stop-opacity="0.2"
         stop-color="#000000"
         offset="1" />
    </radialGradient>
    <radialGradient
       id="SvgjsRadialGradient3202"
       cx="-568.659"
       cy="-521.042"
       r="59.751"
       gradientTransform="matrix(0.096 -0.0248 0.0245 0.0961 141.2814 119.9893)"
       gradientUnits="userSpaceOnUse"
       class="svga-on-canvas-eyesiris-gradient-left-1">
      <stop
         id="SvgjsStop3203"
         stop-opacity="1"
         stop-color="#ffffff"
         offset="0" />
      <stop
         id="SvgjsStop3204"
         stop-opacity="0"
         stop-color="#ffffff"
         offset="1" />
    </radialGradient>
    <radialGradient
       id="SvgjsRadialGradient3206"
       cx="-582.838"
       cy="-519.099"
       r="59.745"
       gradientTransform="matrix(0.0991 8.856319e-004 -0.0011 0.0991 131.1134 135.9855)"
       gradientUnits="userSpaceOnUse"
       class="svga-on-canvas-eyesiris-gradient-left-2">
      <stop
         id="SvgjsStop3207"
         stop-opacity="1"
         stop-color="#ffffff"
         offset="0" />
      <stop
         id="SvgjsStop3208"
         stop-opacity="0"
         stop-color="#ffffff"
         offset="1" />
    </radialGradient>
    <linearGradient
       id="SvgjsLinearGradient3212"
       x1="122.67"
       y1="88.268"
       x2="123.606"
       y2="87.152"
       gradientTransform="matrix(1 0 0 1 -52 0)"
       gradientUnits="userSpaceOnUse"
       class="svga-on-canvas-eyesiris-gradient-left-5">
      <stop
         id="SvgjsStop3213"
         stop-opacity="1"
         stop-color="#ffffff"
         offset="0" />
      <stop
         id="SvgjsStop3214"
         stop-opacity="0"
         stop-color="#ffffff"
         offset="1" />
    </linearGradient>
    <linearGradient
       id="SvgjsLinearGradient3216"
       x1="127.212"
       y1="82.296"
       x2="126.463"
       y2="83.189"
       gradientTransform="matrix(1 0 0 1 -52 0)"
       gradientUnits="userSpaceOnUse"
       class="svga-on-canvas-eyesiris-gradient-left-6">
      <stop
         id="SvgjsStop3217"
         stop-opacity="1"
         stop-color="#ffffff"
         offset="0" />
      <stop
         id="SvgjsStop3218"
         stop-opacity="0"
         stop-color="#ffffff"
         offset="1" />
    </linearGradient>
    <linearGradient
       id="SvgjsLinearGradient3220"
       x1="129.636"
       y1="79.822"
       x2="127.91"
       y2="81.879"
       gradientTransform="matrix(1 0 0 1 -52 0)"
       gradientUnits="userSpaceOnUse"
       class="svga-on-canvas-eyesiris-gradient-left-7">
      <stop
         id="SvgjsStop3221"
         stop-opacity="1"
         stop-color="#ffffff"
         offset="0" />
      <stop
         id="SvgjsStop3222"
         stop-opacity="0"
         stop-color="#ffffff"
         offset="1" />
    </linearGradient>
    <radialGradient
       id="SvgjsRadialGradient3225"
       cx="-568.654"
       cy="-521.042"
       r="59.752"
       gradientTransform="matrix(0.096 -0.0248 0.0245 0.0961 193.2804 119.9894)"
       gradientUnits="userSpaceOnUse"
       class="svga-on-canvas-eyesiris-gradient-right-1">
      <stop
         id="SvgjsStop3226"
         stop-opacity="1"
         stop-color="#ffffff"
         offset="0" />
      <stop
         id="SvgjsStop3227"
         stop-opacity="0"
         stop-color="#ffffff"
         offset="1" />
    </radialGradient>
    <radialGradient
       id="SvgjsRadialGradient3229"
       cx="-582.833"
       cy="-519.102"
       r="59.747"
       gradientTransform="matrix(0.0991 8.856319e-004 -0.0011 0.0991 183.1126 135.9856)"
       gradientUnits="userSpaceOnUse"
       class="svga-on-canvas-eyesiris-gradient-right-2">
      <stop
         id="SvgjsStop3230"
         stop-opacity="1"
         stop-color="#ffffff"
         offset="0" />
      <stop
         id="SvgjsStop3231"
         stop-opacity="0"
         stop-color="#ffffff"
         offset="1" />
    </radialGradient>
    <linearGradient
       id="SvgjsLinearGradient3235"
       x1="122.67"
       y1="88.268"
       x2="123.606"
       y2="87.152"
       gradientUnits="userSpaceOnUse"
       class="svga-on-canvas-eyesiris-gradient-right-5">
      <stop
         id="SvgjsStop3236"
         stop-opacity="1"
         stop-color="#ffffff"
         offset="0" />
      <stop
         id="SvgjsStop3237"
         stop-opacity="0"
         stop-color="#ffffff"
         offset="1" />
    </linearGradient>
    <linearGradient
       id="SvgjsLinearGradient3239"
       x1="127.212"
       y1="82.296"
       x2="126.463"
       y2="83.189"
       gradientUnits="userSpaceOnUse"
       class="svga-on-canvas-eyesiris-gradient-right-6">
      <stop
         id="SvgjsStop3240"
         stop-opacity="1"
         stop-color="#ffffff"
         offset="0" />
      <stop
         id="SvgjsStop3241"
         stop-opacity="0"
         stop-color="#ffffff"
         offset="1" />
    </linearGradient>
    <linearGradient
       id="SvgjsLinearGradient3243"
       x1="129.636"
       y1="79.822"
       x2="127.91"
       y2="81.879"
       gradientUnits="userSpaceOnUse"
       class="svga-on-canvas-eyesiris-gradient-right-7">
      <stop
         id="SvgjsStop3244"
         stop-opacity="1"
         stop-color="#ffffff"
         offset="0" />
      <stop
         id="SvgjsStop3245"
         stop-opacity="0"
         stop-color="#ffffff"
         offset="1" />
    </linearGradient>
    <linearGradient
       id="SvgjsLinearGradient3311"
       x1="130"
       y1="77"
       x2="130"
       y2="98"
       gradientUnits="userSpaceOnUse"
       class="svga-on-canvas-glasses-gradient-single-0">
      <stop
         id="SvgjsStop3312"
         stop-opacity="1"
         stop-color="#26120b"
         offset="0" />
      <stop
         id="SvgjsStop3313"
         stop-opacity="0.5"
         stop-color="#26120b"
         offset="1" />
    </linearGradient>
    <linearGradient
       id="SvgjsLinearGradient3315"
       x1="130"
       y1="77"
       x2="130"
       y2="98"
       gradientTransform="matrix(-1 0 0 1 200 0)"
       gradientUnits="userSpaceOnUse"
       class="svga-on-canvas-glasses-gradient-single-1">
      <stop
         id="SvgjsStop3316"
         stop-opacity="1"
         stop-color="#26120b"
         offset="0" />
      <stop
         id="SvgjsStop3317"
         stop-opacity="0.5"
         stop-color="#26120b"
         offset="1" />
    </linearGradient>
  </defs>
</svg>
