<?xml version="1.0" encoding="UTF-8" standalone="no"?>
<svg
   xmlns:dc="http://purl.org/dc/elements/1.1/"
   xmlns:cc="http://creativecommons.org/ns#"
   xmlns:rdf="http://www.w3.org/1999/02/22-rdf-syntax-ns#"
   xmlns:svg="http://www.w3.org/2000/svg"
   xmlns="http://www.w3.org/2000/svg"
   width="340.14813mm"
   height="162.01024mm"
   viewBox="0 0 340.14813 162.01024"
   version="1.1"
   id="svg1209">
  <defs
     id="defs1203">
    <rect
       x="161.68831"
       y="137.01299"
       width="166.88312"
       height="71.428574"
       id="rect2065" />
    <rect
       x="151.94804"
       y="23.376623"
       width="251.29871"
       height="106.49351"
       id="rect2054" />
    <rect
       x="162.33766"
       y="41.558441"
       width="144.15584"
       height="87.012985"
       id="rect2048" />
    <rect
       x="57.868195"
       y="104.67335"
       width="31.912607"
       height="21.275072"
       id="rect1997" />
    <rect
       x="128.5119"
       y="54.42857"
       width="54.42857"
       height="55.184525"
       id="rect1836" />
    <rect
       x="151.94643"
       y="45.357143"
       width="0"
       height="17.386906"
       id="rect1830" />
    <rect
       x="114.14881"
       y="43.089287"
       width="78.619049"
       height="83.910713"
       id="rect1824" />
    <rect
       x="68.791664"
       y="90.714287"
       width="73.327377"
       height="27.970238"
       id="rect1818" />
    <rect
       x="47.625"
       y="78.619049"
       width="105.83333"
       height="137.58333"
       id="rect1803" />
    <rect
       x="90.714287"
       y="86.934525"
       width="110.36905"
       height="128.5119"
       id="rect1797" />
    <rect
       x="107.34524"
       y="96.005951"
       width="95.25"
       height="101.29762"
       id="rect1791" />
    <rect
       x="99.785713"
       y="74.083336"
       width="100.54167"
       height="71.815475"
       id="rect1780" />
    <rect
       x="86.934525"
       y="98.273811"
       width="103.56548"
       height="65.011902"
       id="rect1774" />
    <rect
       x="57.868195"
       y="104.67335"
       width="31.912607"
       height="21.275072"
       id="rect1997-0" />
    <rect
       x="57.868195"
       y="104.67335"
       width="31.912607"
       height="21.275072"
       id="rect2010" />
  </defs>
  <metadata
     id="metadata1206">
    <rdf:RDF>
      <cc:Work
         rdf:about="">
        <dc:format>image/svg+xml</dc:format>
        <dc:type
           rdf:resource="http://purl.org/dc/dcmitype/StillImage" />
        <dc:title></dc:title>
      </cc:Work>
    </rdf:RDF>
  </metadata>
  <g
     id="layer1"
     transform="translate(-2.0997962,-35.369538)">
    <text
       xml:space="preserve"
       id="text1772"
       style="font-weight:bold;font-size:14.1111px;line-height:0;font-family:'Noto Sans';-inkscape-font-specification:'Noto Sans Bold';letter-spacing:0px;word-spacing:0px;white-space:pre;shape-inside:url(#rect1774)" />
    <text
       xml:space="preserve"
       id="text1795"
       style="font-weight:bold;font-size:4.23333px;line-height:0;font-family:Roboto;-inkscape-font-specification:'Roboto Bold';letter-spacing:0px;word-spacing:0px;white-space:pre;shape-inside:url(#rect1797)" />
    <text
       xml:space="preserve"
       id="text1828"
       style="font-weight:bold;font-size:12.7px;line-height:0;font-family:Roboto;-inkscape-font-specification:'Roboto Bold';text-align:center;letter-spacing:0px;word-spacing:0px;white-space:pre;shape-inside:url(#rect1830)" />
    <path
       style="fill:none;fill-opacity:1;fill-rule:evenodd;stroke:#55ba3f;stroke-width:5;stroke-linecap:square;stroke-linejoin:bevel;stroke-miterlimit:10;stroke-dasharray:none;stroke-opacity:1;paint-order:markers fill stroke;stop-color:#000000"
       id="path1955"
       d="M 97.424114,119.2252 A 23.828079,78.505013 0 0 1 72.966605,194.85087 23.828079,78.505013 0 0 1 49.787459,114.97435 23.828079,78.505013 0 0 1 73.816609,37.87253 23.828079,78.505013 0 0 1 97.439822,116.32419" />
    <path
       style="fill:#55ba3f;fill-opacity:1;fill-rule:evenodd;stroke:#55ba3f;stroke-width:7.19999;stroke-linecap:square;stroke-linejoin:bevel;stroke-miterlimit:10;stroke-dasharray:none;stroke-opacity:1;paint-order:markers fill stroke;stop-color:#000000"
       id="path1957"
       d="M 91.86051,50.229998 A 5.5144987,6.4335823 0 0 1 86.200347,56.427615 5.5144987,6.4335823 0 0 1 80.836026,49.881646 5.5144987,6.4335823 0 0 1 86.397046,43.563047 5.5144987,6.4335823 0 0 1 91.864145,49.992236" />
    <path
       style="fill:none;fill-opacity:1;fill-rule:evenodd;stroke:#55ba3f;stroke-width:4.99999;stroke-linecap:square;stroke-linejoin:bevel;stroke-miterlimit:10;stroke-dasharray:none;stroke-opacity:1;paint-order:markers fill stroke;stop-color:#000000"
       id="path1955-3"
       d="M 87.781211,-119.09145 A 23.828079,78.505013 0 0 1 63.323703,-43.465776 23.828079,78.505013 0 0 1 40.144557,-123.3423 23.828079,78.505013 0 0 1 64.173707,-200.44412 23.828079,78.505013 0 0 1 87.79692,-121.99246"
       transform="rotate(120)" />
    <path
       style="fill:#55ba3f;fill-opacity:1;fill-rule:evenodd;stroke:#55ba3f;stroke-width:7.2;stroke-linecap:square;stroke-linejoin:bevel;stroke-miterlimit:10;stroke-dasharray:none;stroke-opacity:1;paint-order:markers fill stroke;stop-color:#000000"
       id="path1957-7"
       d="M 82.217611,-188.08666 A 5.5144987,6.4335828 0 0 1 76.557449,-181.88904 5.5144987,6.4335828 0 0 1 71.193127,-188.43501 5.5144987,6.4335828 0 0 1 76.754147,-194.75361 5.5144987,6.4335828 0 0 1 82.221247,-188.32442"
       transform="rotate(120)" />
    <path
       style="fill:none;fill-opacity:1;fill-rule:evenodd;stroke:#55ba3f;stroke-width:4.99999;stroke-linecap:square;stroke-linejoin:bevel;stroke-miterlimit:10;stroke-dasharray:none;stroke-opacity:1;paint-order:markers fill stroke;stop-color:#000000"
       id="path1955-3-7"
       d="M 161.40616,8.4306832 A 23.828079,78.505013 0 0 1 136.94865,84.05636 23.828079,78.505013 0 0 1 113.76951,4.1798373 23.828079,78.505013 0 0 1 137.79866,-72.921984 23.828079,78.505013 0 0 1 161.42187,5.529671"
       transform="matrix(0.5,0.8660254,0.8660254,-0.5,0,0)" />
    <path
       style="fill:#55ba3f;fill-opacity:1;fill-rule:evenodd;stroke:#55ba3f;stroke-width:7.2;stroke-linecap:square;stroke-linejoin:bevel;stroke-miterlimit:10;stroke-dasharray:none;stroke-opacity:1;paint-order:markers fill stroke;stop-color:#000000"
       id="path1957-7-9"
       d="M 155.84256,-60.564508 A 5.5144987,6.4335828 0 0 1 150.1824,-54.36689 5.5144987,6.4335828 0 0 1 144.81807,-60.91286 5.5144987,6.4335828 0 0 1 150.37909,-67.23146 5.5144987,6.4335828 0 0 1 155.84619,-60.80227"
       transform="matrix(0.5,0.8660254,0.8660254,-0.5,0,0)" />
    <text
       xml:space="preserve"
       id="text1995"
       style="font-weight:bold;font-size:16.9333px;line-height:0;font-family:Roboto;-inkscape-font-specification:'Roboto Bold';text-align:center;letter-spacing:0px;word-spacing:0px;white-space:pre;shape-inside:url(#rect1997);fill:#55ba3f;fill-opacity:1;stroke:#55ba3f;stroke-opacity:1"
       transform="translate(0,3.7041668)"><tspan
         x="59.25247"
         y="109.66103"><tspan
           style="font-size:16.9333px;fill:#55ba3f;fill-opacity:1;stroke:#55ba3f;stroke-opacity:1">010</tspan></tspan></text>
    <text
       xml:space="preserve"
       id="text1995-7"
       style="font-weight:bold;font-size:16.9333px;line-height:0;font-family:Roboto;-inkscape-font-specification:'Roboto Bold';text-align:center;letter-spacing:0px;word-spacing:0px;white-space:pre;shape-inside:url(#rect1997-0);fill:#55ba3f;fill-opacity:1;stroke:#55ba3f;stroke-opacity:1"
       transform="translate(6.0962622e-7,21.166675)"><tspan
         x="59.25247"
         y="109.66103"><tspan
           style="fill:#55ba3f;fill-opacity:1;stroke:#55ba3f;stroke-opacity:1">101</tspan></tspan></text>
    <text
       xml:space="preserve"
       id="text2052"
       style="font-weight:bold;font-size:50.8px;line-height:0;font-family:Roboto;-inkscape-font-specification:'Roboto Bold';text-align:center;letter-spacing:0px;word-spacing:0px;white-space:pre;shape-inside:url(#rect2054);fill:#55ba3f;fill-opacity:1;stroke:#55ba3f;stroke-opacity:1"
       transform="translate(-31.441558,57.792208)"><tspan
         x="180.41913"
         y="38.338597"><tspan
           style="font-style:normal;font-variant:normal;font-weight:900;font-stretch:normal;font-family:Roboto;-inkscape-font-specification:'Roboto Heavy';fill:#55ba3f;fill-opacity:1;stroke:#55ba3f;stroke-opacity:1">BOSS</tspan><tspan
           style="font-style:normal;font-variant:normal;font-weight:900;font-stretch:normal;font-size:35.2778px;font-family:Roboto;-inkscape-font-specification:'Roboto Heavy';fill:#55ba3f;fill-opacity:1;stroke:#55ba3f;stroke-opacity:1">Con</tspan></tspan></text>
    <text
       xml:space="preserve"
       id="text2063"
       style="font-style:normal;font-variant:normal;font-weight:900;font-stretch:normal;font-size:50.8px;line-height:0;font-family:Roboto;-inkscape-font-specification:'Roboto Heavy';text-align:center;letter-spacing:0px;word-spacing:0px;white-space:pre;shape-inside:url(#rect2065);fill:#55ba3f;fill-opacity:1;stroke:#55ba3f;stroke-opacity:1"
       transform="translate(0,25.929177)"><tspan
         x="186.24356"
         y="151.97532"><tspan
           style="font-style:normal;font-variant:normal;font-weight:900;font-stretch:normal;font-size:50.8px;font-family:Roboto;-inkscape-font-specification:'Roboto Heavy';fill:#55ba3f;fill-opacity:1;stroke:#55ba3f;stroke-opacity:1">2022</tspan></tspan></text>
  </g>
</svg>
