<?xml version="1.0" encoding="UTF-8" standalone="no"?>
<svg
   xmlns:dc="http://purl.org/dc/elements/1.1/"
   xmlns:cc="http://creativecommons.org/ns#"
   xmlns:rdf="http://www.w3.org/1999/02/22-rdf-syntax-ns#"
   xmlns:svg="http://www.w3.org/2000/svg"
   xmlns="http://www.w3.org/2000/svg"
   width="279.87646mm"
   height="154.13341mm"
   viewBox="0 0 279.87646 154.13341"
   version="1.1"
   id="svg2148">
  <defs
     id="defs2142">
    <clipPath
       clipPathUnits="userSpaceOnUse"
       id="clipPath166">
      <path
         d="M 0,2016 H 1584 V 0 H 0 Z"
         id="path164" />
    </clipPath>
    <clipPath
       clipPathUnits="userSpaceOnUse"
       id="clipPath248">
      <path
         d="M 0,2016 H 1584 V 0 H 0 Z"
         id="path246" />
    </clipPath>
  </defs>
  <metadata
     id="metadata2145">
    <rdf:RDF>
      <cc:Work
         rdf:about="">
        <dc:format>image/svg+xml</dc:format>
        <dc:type
           rdf:resource="http://purl.org/dc/dcmitype/StillImage" />
        <dc:title></dc:title>
      </cc:Work>
    </rdf:RDF>
  </metadata>
  <g
     id="layer1"
     transform="translate(232.92037,-6.0880622)">
    <g
       id="g160"
       transform="matrix(0.35277777,0,0,-0.35277777,-376.45485,295.27711)">
      <g
         id="g162"
         clip-path="url(#clipPath166)">
        <g
           id="g168"
           transform="translate(872.3096,754.2695)">
          <path
             d="m 0,0 v -90.444 c 0,-5.276 -4.333,-9.61 -9.609,-9.61 -2.685,0 -5.087,1.084 -6.83,2.826 -1.744,1.744 -2.827,4.146 -2.827,6.784 v 87.429 c 0.047,0.99 0.094,2.026 0.094,3.015 0,0.942 -0.047,1.885 -0.094,2.826 -1.461,24.261 -21.622,43.48 -46.258,43.48 -24.543,0 -44.704,-19.172 -46.212,-43.338 -0.047,-0.989 -0.094,-1.979 -0.094,-2.968 0,-0.989 0.047,-2.025 0.094,-3.015 v -26.379 c 0,-4.287 -2.826,-7.914 -6.736,-9.138 -0.942,-0.33 -1.931,-0.472 -2.921,-0.472 -2.637,0 -5.04,1.084 -6.783,2.826 -1.742,1.697 -2.826,4.146 -2.826,6.784 V 0 c 0,7.49 1.272,14.697 3.58,21.387 8.856,25.673 33.257,44.092 61.898,44.092 34.67,0 63.075,-26.899 65.337,-61.003 0,-0.095 0,-0.142 0.046,-0.236 C -0.047,2.826 0,1.413 0,0"
             style="fill:#000000;fill-opacity:1;fill-rule:nonzero;stroke:none"
             id="path170" />
        </g>
        <g
           id="g172"
           transform="translate(733.8745,645.5371)">
          <path
             d="m 0,0 v -73.917 l -17.974,-10.849 c -5.446,12.113 -8.471,25.557 -8.471,39.702 0,18.876 5.387,36.488 14.716,51.383 z"
             style="fill:#000000;fill-opacity:1;fill-rule:nonzero;stroke:none"
             id="path174" />
        </g>
        <g
           id="g176"
           transform="translate(901.4424,600.4727)">
          <path
             d="m 0,0 c 0,-13.866 -2.911,-27.055 -8.147,-38.979 l -18.169,10.691 v 73.352 l 11.608,6.32 C -5.387,36.488 0,18.876 0,0"
             style="fill:#000000;fill-opacity:1;fill-rule:nonzero;stroke:none"
             id="path178" />
        </g>
        <g
           id="g180"
           transform="translate(842.7598,689.6162)">
          <path
             d="M 0,0 -37.64,-22.735 -76.159,0.211 c 11.631,4.928 24.413,7.651 37.835,7.651 C -24.714,7.862 -11.759,5.057 0,0"
             style="fill:#000000;fill-opacity:1;fill-rule:nonzero;stroke:none"
             id="path182" />
        </g>
        <g
           id="g184"
           transform="translate(882.2725,556.3555)">
          <path
             d="m 0,0 -77.784,-47.18 -33.185,20.735 93.854,57.132 V 10.563 Z"
             style="fill:#000000;fill-opacity:1;fill-rule:nonzero;stroke:none"
             id="path186" />
        </g>
        <g
           id="g188"
           transform="translate(880.7158,660.4111)">
          <path
             d="m 0,0 -15.183,-9.42 -0.187,-52.475 -103.921,-62.82 -33.569,20.659 15.987,9.622 0.188,52.1 103.831,62.955 0.834,0.504 0.015,-0.007 4.507,2.806 c 4.928,-2.874 9.577,-6.169 13.903,-9.84 C -9.863,10.932 -6.365,7.479 -3.152,3.792 -2.069,2.558 -1.023,1.294 0,0"
             style="fill:#000000;fill-opacity:1;fill-rule:nonzero;stroke:none"
             id="path190" />
        </g>
        <g
           id="g192"
           transform="translate(794.2041,504)">
          <path
             d="M 0,0 C -29.597,3.1 -55.229,19.516 -70.81,43.139 Z"
             style="fill:#000000;fill-opacity:1;fill-rule:nonzero;stroke:none"
             id="path194" />
        </g>
        <g
           id="g196"
           transform="translate(884.5449,545.7549)">
          <path
             d="M 0,0 C -15.506,-22.66 -40.378,-38.407 -69.042,-41.665 Z"
             style="fill:#000000;fill-opacity:1;fill-rule:nonzero;stroke:none"
             id="path198" />
        </g>
        <g
           id="g200"
           transform="translate(738.9229,568.8936)">
          <path
             d="M 0,0 -20.76,-12.535 0,-0.034 Z"
             style="fill:#000000;fill-opacity:1;fill-rule:nonzero;stroke:none"
             id="path202" />
        </g>
        <g
           id="g204"
           transform="translate(870.4199,648.2969)">
          <path
             d="M 0,0 1.89,1.142 0,0.018 Z"
             style="fill:#000000;fill-opacity:1;fill-rule:nonzero;stroke:none"
             id="path206" />
        </g>
        <g
           id="g208"
           transform="translate(743.7373,629.4746)">
          <path
             d="m 0,0 0.09,21.969 -15.964,8.584 c 0.632,0.812 1.264,1.602 1.934,2.392 v 0.007 c 4.784,5.771 10.238,10.978 16.234,15.499 l 0.076,0.052 10.555,6.373 h 0.008 l 4.71,-2.837 0.044,0.023 34.285,-20.584 z"
             style="fill:#000000;fill-opacity:1;fill-rule:nonzero;stroke:none"
             id="path210" />
        </g>
        <g
           id="g212"
           transform="translate(797.3887,616.3311)">
          <path
             d="M 0,0 C 0.411,3.146 3.021,5.713 6.172,6.084 10.495,6.594 14.16,3.233 14.16,-0.968 14.16,-4.119 12.105,-6.8 9.268,-7.74 8.571,-7.967 7.823,-8.088 7.039,-8.088 6.256,-8.088 5.507,-7.967 4.811,-7.723 1.687,-6.687 -0.467,-3.564 0,0 m 22.589,-27.183 -9.805,14.325 c 4.422,2.124 7.469,6.65 7.469,11.89 0,7.777 -6.759,14.002 -14.733,13.112 C -0.382,11.484 -5.249,6.742 -6.035,0.856 -6.836,-5.141 -3.616,-10.493 1.312,-12.841 l -9.745,-14.251 c -0.881,-1.288 0.042,-3.037 1.603,-3.037 h 27.865 c 1.514,0 2.409,1.697 1.554,2.946"
             style="fill:#ffffff;fill-opacity:1;fill-rule:nonzero;stroke:none"
             id="path214" />
        </g>
        <g
           id="g216"
           transform="translate(808.6338,615.3789)">
          <path
             d="m 0,0 c 0,-2.305 -1.867,-4.173 -4.172,-4.173 -2.305,0 -4.173,1.868 -4.173,4.173 0,2.305 1.868,4.172 4.173,4.172 C -1.867,4.172 0,2.305 0,0"
             style="fill:#ffffff;fill-opacity:1;fill-rule:nonzero;stroke:none"
             id="path218" />
        </g>
        <path
           d="m 805.379,615.379 h -1.834 v 16.595 h 1.834 z"
           style="fill:#ffffff;fill-opacity:1;fill-rule:nonzero;stroke:none"
           id="path220" />
        <g
           id="g222"
           transform="translate(804.0029,616.1729)">
          <path
             d="m 0,0 0.917,-1.588 -14.37,-8.3 -0.918,1.588 z"
             style="fill:#ffffff;fill-opacity:1;fill-rule:nonzero;stroke:none"
             id="path224" />
        </g>
        <g
           id="g226"
           transform="translate(804.001,614.5859)">
          <path
             d="M 0,0 0.922,1.585 15.267,-6.76 14.344,-8.345 Z"
             style="fill:#ffffff;fill-opacity:1;fill-rule:nonzero;stroke:none"
             id="path228" />
        </g>
        <g
           id="g230"
           transform="translate(821.5977,606.6699)">
          <path
             d="m 0,0 c 0,-1.283 -1.04,-2.324 -2.324,-2.324 -1.283,0 -2.324,1.041 -2.324,2.324 0,1.284 1.041,2.325 2.324,2.325 C -1.04,2.325 0,1.284 0,0"
             style="fill:#ffffff;fill-opacity:1;fill-rule:nonzero;stroke:none"
             id="path232" />
        </g>
        <g
           id="g234"
           transform="translate(791.9229,606.6699)">
          <path
             d="m 0,0 c 0,-1.283 -1.041,-2.324 -2.324,-2.324 -1.284,0 -2.325,1.041 -2.325,2.324 0,1.284 1.041,2.325 2.325,2.325 C -1.041,2.325 0,1.284 0,0"
             style="fill:#ffffff;fill-opacity:1;fill-rule:nonzero;stroke:none"
             id="path236" />
        </g>
        <g
           id="g238"
           transform="translate(806.7871,632.3477)">
          <path
             d="m 0,0 c 0,-1.284 -1.041,-2.324 -2.324,-2.324 -1.284,0 -2.325,1.04 -2.325,2.324 0,1.283 1.041,2.324 2.325,2.324 C -1.041,2.324 0,1.283 0,0"
             style="fill:#ffffff;fill-opacity:1;fill-rule:nonzero;stroke:none"
             id="path240" />
        </g>
      </g>
    </g>
    <g
       id="g242"
       transform="matrix(0.35277777,0,0,-0.35277777,-376.45485,295.27711)">
      <g
         id="g244"
         clip-path="url(#clipPath248)">
        <g
           id="g250"
           transform="translate(445.9204,399.9365)">
          <path
             d="m 0,0 c -12.132,0 -21.964,9.832 -21.964,21.964 0,12.121 9.832,21.953 21.964,21.953 12.132,0 21.964,-9.832 21.964,-21.953 C 21.964,9.832 12.132,0 0,0 m 0,61.015 c -21.564,0 -39.051,-17.487 -39.051,-39.051 0,-21.574 17.487,-39.062 39.051,-39.062 21.564,0 39.05,17.488 39.05,39.062 0,21.564 -17.486,39.051 -39.05,39.051"
             style="fill:#000000;fill-opacity:1;fill-rule:nonzero;stroke:none"
             id="path252" />
        </g>
        <g
           id="g254"
           transform="translate(790.2046,442.4727)">
          <path
             d="m 0,0 v -13.7 h -23.651 c -8.953,0 -16.218,-7.265 -16.218,-16.218 0,-8.041 5.863,-14.714 13.549,-15.998 0.862,-0.152 1.757,-0.22 2.669,-0.22 0.913,0 1.808,0.068 2.67,0.22 H 0 v -13.718 h -23.533 c -5.186,0 -10.051,1.319 -14.291,3.633 -9.258,5.067 -15.542,14.883 -15.542,26.185 0,11.301 6.284,21.116 15.542,26.184 4.24,2.315 9.105,3.632 14.291,3.632 z"
             style="fill:#000000;fill-opacity:1;fill-rule:nonzero;stroke:none"
             id="path256" />
        </g>
        <g
           id="g258"
           transform="translate(990.833,442.4727)">
          <path
             d="m 0,0 v -13.7 h -23.651 c -8.953,0 -16.218,-7.265 -16.218,-16.218 0,-8.041 5.862,-14.714 13.549,-15.998 0.861,-0.152 1.757,-0.22 2.669,-0.22 0.912,0 1.807,0.068 2.67,0.22 H 0 v -13.718 h -23.533 c -5.186,0 -10.051,1.319 -14.291,3.633 -9.258,5.067 -15.542,14.883 -15.542,26.185 0,11.301 6.284,21.116 15.542,26.184 4.24,2.315 9.105,3.632 14.291,3.632 z"
             style="fill:#000000;fill-opacity:1;fill-rule:nonzero;stroke:none"
             id="path260" />
        </g>
        <g
           id="g262"
           transform="translate(730.1318,406.502)">
          <path
             d="m 0,0 c 0,8.488 -4.488,15.943 -11.211,20.094 -2.216,1.389 -4.676,2.403 -7.324,2.967 -1.258,0.282 -2.554,0.469 -3.869,0.526 h -2.441 l -15.643,0.018 h -0.019 c -0.113,-0.018 -0.225,-0.018 -0.338,-0.018 -0.113,0 -0.244,0 -0.357,0.018 -0.131,0 -0.263,0 -0.376,0.019 -3.643,0.376 -6.497,3.456 -6.497,7.212 0,3.807 2.968,6.942 6.727,7.203 h 5.505 l 17.496,-0.03 c -0.004,0.011 -0.008,0.02 -0.011,0.03 h 12.974 v 16.41 H -42.055 V 54.38 c -12.468,-0.635 -22.414,-10.92 -22.414,-23.544 0,-8.488 4.488,-15.944 11.211,-20.095 2.216,-1.389 4.695,-2.403 7.324,-2.967 1.39,-0.319 2.817,-0.506 4.282,-0.545 h 1.521 l 12.882,-0.018 h 3.268 c 0.112,0.018 0.244,0.018 0.356,0.018 0.132,0 0.264,0 0.376,-0.018 3.812,-0.188 6.855,-3.343 6.855,-7.211 0,-3.86 -3.029,-6.995 -6.819,-7.209 H -64.462 V -23.62 h 40.718 c 0.04,0 0.079,-0.005 0.119,-0.005 0.033,0 0.065,0.005 0.098,0.005 h 1.112 v 0.057 C -9.946,-22.93 0,-12.643 0,0"
             style="fill:#000000;fill-opacity:1;fill-rule:nonzero;stroke:none"
             id="path264" />
        </g>
        <g
           id="g266"
           transform="translate(519.332,414.8594)">
          <path
             d="M 0,0 V 0.08 H -14.8 V 17.189 H 0 C 4.75,17.189 8.6,13.34 8.6,8.59 8.6,3.85 4.75,0 0,0 m 0,27.7 h -14.8 v 0.09 H -27.35 V -31.851 H -14.8 V -9.75 H 0 C 10.17,-9.54 18.36,-1.24 18.36,8.979 18.36,19.2 10.17,27.5 0,27.7"
             style="fill:#000000;fill-opacity:1;fill-rule:nonzero;stroke:none"
             id="path268" />
        </g>
        <g
           id="g270"
           transform="translate(1135.0479,460.9229)">
          <path
             d="m 0,0 -22.788,-0.094 -31.983,-33.37 v 33.37 h -16.386 v -77.994 h 16.386 v 20.942 l 5.918,6.175 26.065,-27.023 L 0,-78.088 -37.512,-39.139 Z"
             style="fill:#000000;fill-opacity:1;fill-rule:nonzero;stroke:none"
             id="path272" />
        </g>
        <path
           d="m 796.914,383.011 h 12.88 v 47.079 h -12.88 z"
           style="fill:#000000;fill-opacity:1;fill-rule:nonzero;stroke:none"
           id="path274" />
        <path
           d="m 796.914,432.127 h 12.88 v 10.521 h -12.88 z"
           style="fill:#000000;fill-opacity:1;fill-rule:nonzero;stroke:none"
           id="path276" />
        <g
           id="g278"
           transform="translate(557.8921,418.0596)">
          <path
             d="m 0,0 c 2.21,6.909 8.68,11.909 16.33,11.909 7.65,0 14.12,-5 16.33,-11.909 z M 45.68,0 C 43.22,13.979 31.01,24.59 16.33,24.59 1.65,24.59 -10.56,13.979 -13.02,0 c -0.31,-1.7 -0.47,-3.45 -0.47,-5.23 v -0.031 c 0,-1.8 0.16,-3.55 0.48,-5.26 2.49,-13.95 14.68,-24.53 29.34,-24.53 10.79,0 20.24,5.731 25.46,14.311 l -10.98,6.34 c -3.03,-4.79 -8.39,-7.97 -14.48,-7.97 -7.62,0 -14.08,4.97 -16.31,11.849 h 45.65 c 0.32,1.71 0.48,3.46 0.48,5.26 v 0.031 c 0,1.78 -0.16,3.53 -0.47,5.23"
             style="fill:#000000;fill-opacity:1;fill-rule:nonzero;stroke:none"
             id="path280" />
        </g>
        <g
           id="g282"
           transform="translate(830.3213,418.0596)">
          <path
             d="m 0,0 c 2.21,6.909 8.681,11.909 16.33,11.909 7.65,0 14.12,-5 16.33,-11.909 z M 45.681,0 C 43.221,13.979 31.011,24.59 16.33,24.59 1.65,24.59 -10.56,13.979 -13.02,0 c -0.31,-1.7 -0.469,-3.45 -0.469,-5.23 v -0.031 c 0,-1.8 0.159,-3.55 0.479,-5.26 2.49,-13.95 14.68,-24.53 29.34,-24.53 10.79,0 20.24,5.731 25.46,14.311 l -10.979,6.34 c -3.031,-4.79 -8.391,-7.97 -14.481,-7.97 -7.62,0 -14.08,4.97 -16.309,11.849 H 45.67 c 0.32,1.71 0.48,3.46 0.48,5.26 v 0.031 c 0,1.78 -0.16,3.53 -0.469,5.23"
             style="fill:#000000;fill-opacity:1;fill-rule:nonzero;stroke:none"
             id="path284" />
        </g>
        <g
           id="g286"
           transform="translate(1011.0322,418.0596)">
          <path
             d="m 0,0 c 2.21,6.909 8.68,11.909 16.329,11.909 7.65,0 14.12,-5 16.33,-11.909 z M 45.68,0 C 43.22,13.979 31.01,24.59 16.329,24.59 1.649,24.59 -10.561,13.979 -13.021,0 -13.33,-1.7 -13.49,-3.45 -13.49,-5.23 v -0.031 c 0,-1.8 0.16,-3.55 0.479,-5.26 2.49,-13.95 14.681,-24.53 29.34,-24.53 10.79,0 20.24,5.731 25.461,14.311 l -10.98,6.34 c -3.031,-4.79 -8.39,-7.97 -14.481,-7.97 -7.619,0 -14.079,4.97 -16.309,11.849 h 45.65 c 0.319,1.71 0.479,3.46 0.479,5.26 v 0.031 c 0,1.78 -0.16,3.53 -0.469,5.23"
             style="fill:#000000;fill-opacity:1;fill-rule:nonzero;stroke:none"
             id="path288" />
        </g>
        <g
           id="g290"
           transform="translate(658.3018,421.9893)">
          <path
             d="m 0,0 c 0.02,-0.03 0.04,-0.061 0.06,-0.09 v -38.89 h -12.55 v 33.79 c 0,6.22 -5.04,11.25 -11.25,11.25 -0.54,0 -1.07,-0.04 -1.59,-0.121 C -30.79,5.18 -34.99,0.49 -34.99,-5.19 V -9.05 C -35,-9.05 -35,-9.04 -35,-9.04 V -38.98 H -47.54 V 20.66 H -35 v -8.551 c 0,0 0,0.011 0.01,0.011 3.43,5.14 9.28,8.54 15.93,8.54 2.31,0 4.52,-0.41 6.57,-1.16 C -5.16,16.82 0.06,9.79 0.06,1.54 0.06,1.02 0.04,0.51 0,0"
             style="fill:#000000;fill-opacity:1;fill-rule:nonzero;stroke:none"
             id="path292" />
        </g>
        <g
           id="g294"
           transform="translate(930.6973,421.9893)">
          <path
             d="M 0,0 C 0.021,-0.03 0.04,-0.061 0.061,-0.09 V -38.98 H -12.49 v 33.79 c 0,6.22 -5.04,11.25 -11.25,11.25 -0.54,0 -1.07,-0.04 -1.59,-0.121 C -30.79,5.18 -34.99,0.49 -34.99,-5.19 V -9.05 C -35,-9.05 -35,-9.04 -35,-9.04 V -38.98 H -47.54 V 20.66 H -35 v -8.551 c 0,0 0,0.011 0.01,0.011 3.43,5.14 9.28,8.54 15.93,8.54 2.31,0 4.52,-0.41 6.57,-1.16 C -5.16,16.82 0.061,9.79 0.061,1.54 0.061,1.02 0.04,0.51 0,0"
             style="fill:#000000;fill-opacity:1;fill-rule:nonzero;stroke:none"
             id="path296" />
        </g>
        <path
           d="m 1200.22,447.049 h -58.411 v 13.874 h 58.411 z"
           style="fill:#000000;fill-opacity:1;fill-rule:nonzero;stroke:none"
           id="path298" />
        <path
           d="m 1200.22,382.84 h -58.411 v 13.874 h 58.411 z"
           style="fill:#000000;fill-opacity:1;fill-rule:nonzero;stroke:none"
           id="path300" />
        <path
           d="m 1200.22,414.944 h -58.411 v 13.874 h 58.411 z"
           style="fill:#000000;fill-opacity:1;fill-rule:nonzero;stroke:none"
           id="path302" />
        <path
           d="m 1141.809,460.923 h 16.432 V 382.84 h -16.432 z"
           style="fill:#000000;fill-opacity:1;fill-rule:nonzero;stroke:none"
           id="path304" />
      </g>
    </g>
  </g>
</svg>
