<?xml version="1.0" encoding="UTF-8" standalone="no"?>
<svg
   xmlns:dc="http://purl.org/dc/elements/1.1/"
   xmlns:cc="http://creativecommons.org/ns#"
   xmlns:rdf="http://www.w3.org/1999/02/22-rdf-syntax-ns#"
   xmlns:svg="http://www.w3.org/2000/svg"
   xmlns="http://www.w3.org/2000/svg"
   width="279.87589mm"
   height="158.12755mm"
   viewBox="0 0 279.87589 158.12755"
   version="1.1"
   id="svg1241">
  <defs
     id="defs1235">
    <clipPath
       clipPathUnits="userSpaceOnUse"
       id="clipPath20">
      <path
         d="M 0,2016 H 1584 V 0 H 0 Z"
         id="path18" />
    </clipPath>
    <clipPath
       clipPathUnits="userSpaceOnUse"
       id="clipPath102">
      <path
         d="M 0,2016 H 1584 V 0 H 0 Z"
         id="path100" />
    </clipPath>
  </defs>
  <metadata
     id="metadata1238">
    <rdf:RDF>
      <cc:Work
         rdf:about="">
        <dc:format>image/svg+xml</dc:format>
        <dc:type
           rdf:resource="http://purl.org/dc/dcmitype/StillImage" />
        <dc:title></dc:title>
      </cc:Work>
    </rdf:RDF>
  </metadata>
  <g
     id="layer1"
     transform="translate(34.104617,-69.102886)">
    <g
       id="g14"
       transform="matrix(0.35277777,0,0,-0.35277777,-177.96845,716.374)">
      <g
         id="g16"
         clip-path="url(#clipPath20)">
        <g
           id="g22"
           transform="translate(873.4824,1768.2153)">
          <path
             d="m 0,0 v -91.952 c 0,-5.363 -4.405,-9.77 -9.77,-9.77 -2.729,0 -5.171,1.102 -6.944,2.874 -1.771,1.772 -2.873,4.214 -2.873,6.896 v 88.887 c 0.048,1.005 0.096,2.059 0.096,3.065 0,0.958 -0.048,1.916 -0.096,2.873 -1.484,24.665 -21.982,44.204 -47.029,44.204 -24.952,0 -45.449,-19.492 -46.982,-44.06 -0.048,-1.006 -0.096,-2.012 -0.096,-3.017 0,-1.006 0.048,-2.06 0.096,-3.065 v -26.819 c 0,-4.359 -2.873,-8.046 -6.848,-9.291 -0.958,-0.336 -1.964,-0.479 -2.97,-0.479 -2.682,0 -5.124,1.101 -6.896,2.873 -1.772,1.724 -2.874,4.215 -2.874,6.897 V 0 c 0,7.614 1.293,14.942 3.64,21.743 9.004,26.1 33.812,44.826 62.93,44.826 35.248,0 64.126,-27.346 66.425,-62.019 0,-0.096 0,-0.144 0.047,-0.24 C -0.047,2.873 0,1.437 0,0"
             style="fill:#ffffff;fill-opacity:1;fill-rule:nonzero;stroke:none"
             id="path24" />
        </g>
        <g
           id="g26"
           transform="translate(732.7397,1657.6704)">
          <path
             d="m 0,0 v -75.149 l -18.273,-11.03 c -5.538,12.315 -8.612,25.983 -8.612,40.363 0,19.191 5.476,37.096 14.961,52.241 z"
             style="fill:#ffffff;fill-opacity:1;fill-rule:nonzero;stroke:none"
             id="path28" />
        </g>
        <g
           id="g30"
           transform="translate(903.1006,1611.8545)">
          <path
             d="m 0,0 c 0,-14.097 -2.96,-27.505 -8.283,-39.628 l -18.472,10.868 v 74.576 l 11.802,6.425 C -5.477,37.096 0,19.19 0,0"
             style="fill:#ffffff;fill-opacity:1;fill-rule:nonzero;stroke:none"
             id="path32" />
        </g>
        <g
           id="g34"
           transform="translate(843.4404,1702.4844)">
          <path
             d="M 0,0 -38.267,-23.114 -77.429,0.214 c 11.825,5.01 24.821,7.779 38.466,7.779 C -25.126,7.993 -11.955,5.14 0,0"
             style="fill:#ffffff;fill-opacity:1;fill-rule:nonzero;stroke:none"
             id="path36" />
        </g>
        <g
           id="g38"
           transform="translate(883.6113,1567.002)">
          <path
             d="m 0,0 -79.08,-47.965 -33.739,21.08 95.419,58.084 v -20.46 z"
             style="fill:#ffffff;fill-opacity:1;fill-rule:nonzero;stroke:none"
             id="path40" />
        </g>
        <g
           id="g42"
           transform="translate(882.0283,1672.792)">
          <path
             d="m 0,0 -15.436,-9.576 -0.19,-53.35 -105.653,-63.867 -34.129,21.003 16.254,9.783 0.191,52.967 105.561,64.005 0.849,0.513 0.015,-0.008 4.582,2.853 c 5.01,-2.922 9.736,-6.272 14.135,-10.005 3.794,-3.204 7.35,-6.715 10.616,-10.463 C -2.104,2.601 -1.04,1.315 0,0"
             style="fill:#ffffff;fill-opacity:1;fill-rule:nonzero;stroke:none"
             id="path44" />
        </g>
        <g
           id="g46"
           transform="translate(794.0752,1513.7744)">
          <path
             d="M 0,0 C -30.09,3.151 -56.149,19.841 -71.99,43.858 Z"
             style="fill:#ffffff;fill-opacity:1;fill-rule:nonzero;stroke:none"
             id="path48" />
        </g>
        <g
           id="g50"
           transform="translate(885.9219,1556.2246)">
          <path
             d="M 0,0 C -15.765,-23.038 -41.051,-39.047 -70.193,-42.358 Z"
             style="fill:#ffffff;fill-opacity:1;fill-rule:nonzero;stroke:none"
             id="path52" />
        </g>
        <g
           id="g54"
           transform="translate(737.8721,1579.7495)">
          <path
             d="M 0,0 -21.105,-12.745 0,-0.035 Z"
             style="fill:#000000;fill-opacity:1;fill-rule:nonzero;stroke:none"
             id="path56" />
        </g>
        <g
           id="g58"
           transform="translate(871.5615,1660.4761)">
          <path
             d="M 0,0 1.921,1.16 0,0.018 Z"
             style="fill:#000000;fill-opacity:1;fill-rule:nonzero;stroke:none"
             id="path60" />
        </g>
        <g
           id="g62"
           transform="translate(742.7676,1641.3403)">
          <path
             d="m 0,0 0.092,22.334 -16.231,8.728 c 0.642,0.826 1.285,1.629 1.966,2.432 v 0.007 c 4.864,5.867 10.409,11.16 16.506,15.757 l 0.076,0.054 10.732,6.478 h 0.007 l 4.788,-2.884 0.046,0.023 34.855,-20.927 z"
             style="fill:#ffffff;fill-opacity:1;fill-rule:nonzero;stroke:none"
             id="path64" />
        </g>
        <g
           id="g66"
           transform="translate(797.3125,1627.9771)">
          <path
             d="m 0,0 c 0.419,3.199 3.071,5.808 6.275,6.186 4.395,0.518 8.121,-2.898 8.121,-7.169 0,-3.204 -2.088,-5.93 -4.973,-6.886 C 8.715,-8.099 7.953,-8.223 7.157,-8.223 6.36,-8.223 5.6,-8.099 4.892,-7.851 1.715,-6.799 -0.475,-3.623 0,0 m 22.966,-27.635 -9.968,14.563 c 4.495,2.159 7.593,6.761 7.593,12.089 0,7.906 -6.872,14.235 -14.979,13.329 -6,-0.67 -10.947,-5.491 -11.747,-11.475 -0.815,-6.097 2.458,-11.539 7.469,-13.926 l -9.907,-14.488 c -0.896,-1.31 0.042,-3.088 1.629,-3.088 h 28.33 c 1.54,0 2.449,1.726 1.58,2.996"
             style="fill:#000000;fill-opacity:1;fill-rule:nonzero;stroke:none"
             id="path68" />
        </g>
        <g
           id="g70"
           transform="translate(808.7461,1627.0093)">
          <path
             d="m 0,0 c 0,-2.343 -1.899,-4.242 -4.242,-4.242 -2.343,0 -4.242,1.899 -4.242,4.242 0,2.343 1.899,4.242 4.242,4.242 C -1.899,4.242 0,2.343 0,0"
             style="fill:#000000;fill-opacity:1;fill-rule:nonzero;stroke:none"
             id="path72" />
        </g>
        <path
           d="m 805.436,1627.009 h -1.864 v 16.872 h 1.864 z"
           style="fill:#000000;fill-opacity:1;fill-rule:nonzero;stroke:none"
           id="path74" />
        <g
           id="g76"
           transform="translate(804.0371,1627.8164)">
          <path
             d="m 0,0 0.933,-1.614 -14.61,-8.438 -0.933,1.614 z"
             style="fill:#000000;fill-opacity:1;fill-rule:nonzero;stroke:none"
             id="path78" />
        </g>
        <g
           id="g80"
           transform="translate(804.0352,1626.2036)">
          <path
             d="M 0,0 0.937,1.611 15.521,-6.873 14.583,-8.484 Z"
             style="fill:#000000;fill-opacity:1;fill-rule:nonzero;stroke:none"
             id="path82" />
        </g>
        <g
           id="g84"
           transform="translate(821.9258,1618.1558)">
          <path
             d="m 0,0 c 0,-1.305 -1.059,-2.363 -2.363,-2.363 -1.306,0 -2.364,1.058 -2.364,2.363 0,1.305 1.058,2.363 2.364,2.363 C -1.059,2.363 0,1.305 0,0"
             style="fill:#000000;fill-opacity:1;fill-rule:nonzero;stroke:none"
             id="path86" />
        </g>
        <g
           id="g88"
           transform="translate(791.7559,1618.1558)">
          <path
             d="m 0,0 c 0,-1.305 -1.058,-2.363 -2.363,-2.363 -1.305,0 -2.363,1.058 -2.363,2.363 0,1.305 1.058,2.363 2.363,2.363 C -1.058,2.363 0,1.305 0,0"
             style="fill:#000000;fill-opacity:1;fill-rule:nonzero;stroke:none"
             id="path90" />
        </g>
        <g
           id="g92"
           transform="translate(806.8672,1644.2607)">
          <path
             d="m 0,0 c 0,-1.305 -1.058,-2.363 -2.362,-2.363 -1.306,0 -2.364,1.058 -2.364,2.363 0,1.305 1.058,2.363 2.364,2.363 C -1.058,2.363 0,1.305 0,0"
             style="fill:#000000;fill-opacity:1;fill-rule:nonzero;stroke:none"
             id="path94" />
        </g>
      </g>
    </g>
    <g
       id="g96"
       transform="matrix(0.35277777,0,0,-0.35277777,-177.96845,716.374)">
      <g
         id="g98"
         clip-path="url(#clipPath102)">
        <g
           id="g104"
           transform="translate(446.853,1403.6499)">
          <path
             d="m 0,0 c -12.132,0 -21.964,9.832 -21.964,21.964 0,12.12 9.832,21.953 21.964,21.953 12.132,0 21.964,-9.833 21.964,-21.953 C 21.964,9.832 12.132,0 0,0 m 0,61.014 c -21.564,0 -39.05,-17.486 -39.05,-39.05 0,-21.575 17.486,-39.062 39.05,-39.062 21.564,0 39.051,17.487 39.051,39.062 0,21.564 -17.487,39.05 -39.051,39.05"
             style="fill:#ffffff;fill-opacity:1;fill-rule:nonzero;stroke:none"
             id="path106" />
        </g>
        <g
           id="g108"
           transform="translate(791.1372,1446.186)">
          <path
             d="m 0,0 v -13.701 h -23.65 c -8.954,0 -16.218,-7.264 -16.218,-16.217 0,-8.041 5.862,-14.715 13.548,-15.999 0.862,-0.151 1.757,-0.219 2.67,-0.219 0.912,0 1.807,0.068 2.669,0.219 H 0 v -13.717 h -23.532 c -5.187,0 -10.052,1.318 -14.292,3.632 -9.258,5.068 -15.542,14.883 -15.542,26.185 0,11.302 6.284,21.117 15.542,26.185 4.24,2.314 9.105,3.632 14.292,3.632 z"
             style="fill:#ffffff;fill-opacity:1;fill-rule:nonzero;stroke:none"
             id="path110" />
        </g>
        <g
           id="g112"
           transform="translate(991.7656,1446.186)">
          <path
             d="m 0,0 v -13.701 h -23.651 c -8.953,0 -16.217,-7.264 -16.217,-16.217 0,-8.041 5.861,-14.715 13.548,-15.999 0.861,-0.151 1.757,-0.219 2.669,-0.219 0.913,0 1.807,0.068 2.67,0.219 H 0 v -13.717 h -23.532 c -5.187,0 -10.052,1.318 -14.292,3.632 -9.258,5.068 -15.542,14.883 -15.542,26.185 0,11.302 6.284,21.117 15.542,26.185 4.24,2.314 9.105,3.632 14.292,3.632 z"
             style="fill:#ffffff;fill-opacity:1;fill-rule:nonzero;stroke:none"
             id="path114" />
        </g>
        <g
           id="g116"
           transform="translate(731.0645,1410.2148)">
          <path
             d="m 0,0 c 0,8.488 -4.488,15.943 -11.211,20.094 -2.216,1.389 -4.676,2.404 -7.324,2.967 -1.258,0.282 -2.554,0.469 -3.868,0.526 h -2.442 l -15.643,0.018 h -0.019 c -0.113,-0.018 -0.225,-0.018 -0.338,-0.018 -0.113,0 -0.244,0 -0.357,0.018 -0.131,0 -0.262,0 -0.375,0.02 -3.644,0.375 -6.498,3.455 -6.498,7.21 0,3.807 2.968,6.943 6.727,7.204 h 5.506 l 17.495,-0.03 c -0.004,0.011 -0.008,0.02 -0.011,0.03 h 12.974 v 16.41 H -42.055 V 54.38 c -12.468,-0.634 -22.414,-10.92 -22.414,-23.545 0,-8.488 4.488,-15.943 11.211,-20.093 2.216,-1.39 4.695,-2.404 7.324,-2.968 1.39,-0.319 2.817,-0.506 4.282,-0.544 h 1.521 l 12.882,-0.019 h 3.268 c 0.113,0.019 0.244,0.019 0.357,0.019 0.131,0 0.263,0 0.375,-0.019 3.812,-0.188 6.855,-3.342 6.855,-7.211 0,-3.861 -3.029,-6.995 -6.819,-7.209 H -64.462 V -23.62 h 40.718 c 0.04,0 0.079,-0.005 0.12,-0.005 0.033,0 0.064,0.005 0.097,0.005 h 1.112 v 0.057 C -9.946,-22.929 0,-12.643 0,0"
             style="fill:#ffffff;fill-opacity:1;fill-rule:nonzero;stroke:none"
             id="path118" />
        </g>
        <g
           id="g120"
           transform="translate(520.2646,1418.5723)">
          <path
             d="M 0,0 V 0.08 H -14.8 V 17.19 H 0 c 4.75,0 8.6,-3.85 8.6,-8.6 C 8.6,3.85 4.75,0 0,0 m 0,27.7 h -14.8 v 0.09 h -12.55 v -59.64 h 12.55 v 22.1 H 0 C 10.17,-9.54 18.36,-1.24 18.36,8.98 18.36,19.2 10.17,27.5 0,27.7"
             style="fill:#ffffff;fill-opacity:1;fill-rule:nonzero;stroke:none"
             id="path122" />
        </g>
        <g
           id="g124"
           transform="translate(1135.9814,1464.6357)">
          <path
             d="m 0,0 -22.789,-0.094 -31.983,-33.37 v 33.37 h -16.386 v -77.993 h 16.386 v 20.941 l 5.918,6.175 26.065,-27.023 L 0,-78.087 -37.513,-39.139 Z"
             style="fill:#ffffff;fill-opacity:1;fill-rule:nonzero;stroke:none"
             id="path126" />
        </g>
        <path
           d="m 797.847,1386.723 h 12.88 v 47.08 h -12.88 z"
           style="fill:#ffffff;fill-opacity:1;fill-rule:nonzero;stroke:none"
           id="path128" />
        <path
           d="m 797.847,1435.84 h 12.88 v 10.521 h -12.88 z"
           style="fill:#ffffff;fill-opacity:1;fill-rule:nonzero;stroke:none"
           id="path130" />
        <g
           id="g132"
           transform="translate(558.8247,1421.772)">
          <path
             d="m 0,0 c 2.21,6.91 8.68,11.91 16.33,11.91 7.65,0 14.12,-5 16.33,-11.91 z M 45.68,0 C 43.22,13.98 31.01,24.59 16.33,24.59 1.65,24.59 -10.56,13.98 -13.02,0 c -0.31,-1.7 -0.47,-3.45 -0.47,-5.23 v -0.03 c 0,-1.8 0.16,-3.55 0.48,-5.26 2.49,-13.95 14.68,-24.53 29.34,-24.53 10.79,0 20.24,5.73 25.46,14.31 l -10.98,6.34 c -3.03,-4.79 -8.39,-7.97 -14.48,-7.97 -7.62,0 -14.08,4.97 -16.31,11.85 h 45.65 c 0.32,1.71 0.48,3.46 0.48,5.26 v 0.03 c 0,1.78 -0.16,3.53 -0.47,5.23"
             style="fill:#ffffff;fill-opacity:1;fill-rule:nonzero;stroke:none"
             id="path134" />
        </g>
        <g
           id="g136"
           transform="translate(831.2539,1421.772)">
          <path
             d="m 0,0 c 2.21,6.91 8.681,11.91 16.33,11.91 7.65,0 14.12,-5 16.33,-11.91 z M 45.681,0 C 43.221,13.98 31.011,24.59 16.33,24.59 1.65,24.59 -10.56,13.98 -13.02,0 c -0.31,-1.7 -0.469,-3.45 -0.469,-5.23 v -0.03 c 0,-1.8 0.159,-3.55 0.479,-5.26 2.49,-13.95 14.68,-24.53 29.34,-24.53 10.79,0 20.24,5.73 25.46,14.31 l -10.979,6.34 c -3.031,-4.79 -8.391,-7.97 -14.481,-7.97 -7.62,0 -14.08,4.97 -16.309,11.85 H 45.67 c 0.32,1.71 0.48,3.46 0.48,5.26 v 0.03 c 0,1.78 -0.16,3.53 -0.469,5.23"
             style="fill:#ffffff;fill-opacity:1;fill-rule:nonzero;stroke:none"
             id="path138" />
        </g>
        <g
           id="g140"
           transform="translate(1011.9648,1421.772)">
          <path
             d="m 0,0 c 2.21,6.91 8.68,11.91 16.33,11.91 7.649,0 14.119,-5 16.329,-11.91 z M 45.68,0 C 43.22,13.98 31.01,24.59 16.33,24.59 1.649,24.59 -10.561,13.98 -13.021,0 -13.33,-1.7 -13.49,-3.45 -13.49,-5.23 v -0.03 c 0,-1.8 0.16,-3.55 0.479,-5.26 2.49,-13.95 14.681,-24.53 29.341,-24.53 10.79,0 20.239,5.73 25.46,14.31 l -10.98,6.34 c -3.031,-4.79 -8.39,-7.97 -14.48,-7.97 -7.62,0 -14.08,4.97 -16.31,11.85 h 45.65 c 0.319,1.71 0.479,3.46 0.479,5.26 v 0.03 c 0,1.78 -0.16,3.53 -0.469,5.23"
             style="fill:#ffffff;fill-opacity:1;fill-rule:nonzero;stroke:none"
             id="path142" />
        </g>
        <g
           id="g144"
           transform="translate(659.2349,1425.7021)">
          <path
             d="m 0,0 c 0.02,-0.03 0.04,-0.06 0.06,-0.09 v -38.89 h -12.55 v 33.79 c 0,6.22 -5.04,11.25 -11.25,11.25 -0.54,0 -1.07,-0.04 -1.59,-0.12 -5.46,-0.76 -9.66,-5.45 -9.66,-11.13 V -9.05 C -35,-9.05 -35,-9.04 -35,-9.04 V -38.98 H -47.54 V 20.66 H -35 v -8.55 c 0,0 0,0.01 0.01,0.01 3.43,5.14 9.28,8.54 15.93,8.54 2.31,0 4.52,-0.41 6.57,-1.16 C -5.16,16.82 0.06,9.79 0.06,1.54 0.06,1.02 0.04,0.51 0,0"
             style="fill:#ffffff;fill-opacity:1;fill-rule:nonzero;stroke:none"
             id="path146" />
        </g>
        <g
           id="g148"
           transform="translate(931.6299,1425.7021)">
          <path
             d="M 0,0 C 0.021,-0.03 0.04,-0.06 0.061,-0.09 V -38.98 H -12.49 v 33.79 c 0,6.22 -5.04,11.25 -11.25,11.25 -0.54,0 -1.07,-0.04 -1.59,-0.12 -5.46,-0.76 -9.66,-5.45 -9.66,-11.13 V -9.05 C -35,-9.05 -35,-9.04 -35,-9.04 V -38.98 H -47.54 V 20.66 H -35 v -8.55 c 0,0 0,0.01 0.01,0.01 3.43,5.14 9.28,8.54 15.93,8.54 2.31,0 4.52,-0.41 6.57,-1.16 C -5.16,16.82 0.061,9.79 0.061,1.54 0.061,1.02 0.04,0.51 0,0"
             style="fill:#ffffff;fill-opacity:1;fill-rule:nonzero;stroke:none"
             id="path150" />
        </g>
        <path
           d="m 1201.152,1450.761 h -58.41 v 13.875 h 58.41 z"
           style="fill:#ffffff;fill-opacity:1;fill-rule:nonzero;stroke:none"
           id="path152" />
        <path
           d="m 1201.152,1386.552 h -58.41 v 13.874 h 58.41 z"
           style="fill:#ffffff;fill-opacity:1;fill-rule:nonzero;stroke:none"
           id="path154" />
        <path
           d="m 1201.152,1418.657 h -58.41 v 13.875 h 58.41 z"
           style="fill:#ffffff;fill-opacity:1;fill-rule:nonzero;stroke:none"
           id="path156" />
        <path
           d="m 1142.742,1464.636 h 16.431 v -78.083 h -16.431 z"
           style="fill:#ffffff;fill-opacity:1;fill-rule:nonzero;stroke:none"
           id="path158" />
      </g>
    </g>
  </g>
</svg>
