<?xml version="1.0" encoding="UTF-8" standalone="no"?>
<svg
   xmlns:dc="http://purl.org/dc/elements/1.1/"
   xmlns:cc="http://creativecommons.org/ns#"
   xmlns:rdf="http://www.w3.org/1999/02/22-rdf-syntax-ns#"
   xmlns:svg="http://www.w3.org/2000/svg"
   xmlns="http://www.w3.org/2000/svg"
   width="279.87589mm"
   height="158.12755mm"
   viewBox="0 0 279.87589 158.12755"
   version="1.1"
   id="svg1241">
  <defs
     id="defs1235">
    <clipPath
       clipPathUnits="userSpaceOnUse"
       id="clipPath20">
      <path
         d="M 0,2016 H 1584 V 0 H 0 Z"
         id="path18" />
    </clipPath>
    <clipPath
       clipPathUnits="userSpaceOnUse"
       id="clipPath102">
      <path
         d="M 0,2016 H 1584 V 0 H 0 Z"
         id="path100" />
    </clipPath>
  </defs>
  <metadata
     id="metadata1238">
    <rdf:RDF>
      <cc:Work
         rdf:about="">
        <dc:format>image/svg+xml</dc:format>
        <dc:type
           rdf:resource="http://purl.org/dc/dcmitype/StillImage" />
        <dc:title></dc:title>
      </cc:Work>
    </rdf:RDF>
  </metadata>
  <g
     id="layer1"
     transform="translate(34.104617,-69.102886)">
    <g
       id="g14"
       transform="matrix(0.35277777,0,0,-0.35277777,-177.96845,716.374)">
      <g
         id="g16"
         clip-path="url(#clipPath20)">
        <g
           id="g22"
           transform="translate(873.4824,1768.2153)">
          <path
             d="M 0,0 V -91.952 C 0,-97.315 -4.405,-101.722 -9.77,-101.722 -12.499,-101.722 -14.941,-100.62 -16.714,-98.848 -18.485,-97.076 -19.587,-94.634 -19.587,-91.952 V -3.065 C -19.539,-2.06 -19.491,-1.006 -19.491,0 -19.491,0.958 -19.539,1.916 -19.587,2.873 -21.071,27.538 -41.569,47.077 -66.616,47.077 -91.568,47.077 -112.065,27.585 -113.598,3.017 -113.646,2.011 -113.694,1.005 -113.694,0 -113.694,-1.006 -113.646,-2.06 -113.598,-3.065 V -29.884 C -113.598,-34.243 -116.471,-37.93 -120.446,-39.175 -121.404,-39.511 -122.41,-39.654 -123.416,-39.654 -126.098,-39.654 -128.54,-38.553 -130.312,-36.781 -132.084,-35.057 -133.186,-32.566 -133.186,-29.884 V 0 C -133.186,7.614 -131.893,14.942 -129.546,21.743 -120.542,47.843 -95.734,66.569 -66.616,66.569 -31.368,66.569 -2.49,39.223 -0.191,4.55 -0.191,4.454 -0.191,4.406 -0.144,4.31 -0.047,2.873 0,1.437 0,0"
             style="fill:#ffffff;fill-opacity:1;fill-rule:nonzero;stroke:none"
             id="path24" />
        </g>
        <g
           id="g26"
           transform="translate(732.7397,1657.6704)">
          <path
             d="M 0,0 V -75.149 L -18.273,-86.179 C -23.811,-73.864 -26.885,-60.196 -26.885,-45.816 -26.885,-26.625 -21.409,-8.72 -11.924,6.425 Z"
             style="fill:#ffffff;fill-opacity:1;fill-rule:nonzero;stroke:none"
             id="path28" />
        </g>
        <g
           id="g30"
           transform="translate(903.1006,1611.8545)">
          <path
             d="M 0,0 C 0,-14.097 -2.96,-27.505 -8.283,-39.628 L -26.755,-28.76 V 45.816 L -14.953,52.241 C -5.477,37.096 0,19.19 0,0"
             style="fill:#ffffff;fill-opacity:1;fill-rule:nonzero;stroke:none"
             id="path32" />
        </g>
        <g
           id="g34"
           transform="translate(843.4404,1702.4844)">
          <path
             d="M 0,0 -38.267,-23.114 -77.429,0.214 C -65.604,5.224 -52.608,7.993 -38.963,7.993 -25.126,7.993 -11.955,5.14 0,0"
             style="fill:#ffffff;fill-opacity:1;fill-rule:nonzero;stroke:none"
             id="path36" />
        </g>
        <g
           id="g38"
           transform="translate(883.6113,1567.002)">
          <path
             d="M 0,0 -79.08,-47.965 -112.819,-26.885 -17.4,31.199 V 10.739 Z"
             style="fill:#ffffff;fill-opacity:1;fill-rule:nonzero;stroke:none"
             id="path40" />
        </g>
        <g
           id="g42"
           transform="translate(882.0283,1672.792)">
          <path
             d="M 0,0 -15.436,-9.576 -15.626,-62.926 -121.279,-126.793 -155.408,-105.79 -139.154,-96.007 -138.963,-43.04 -33.402,20.965 -32.553,21.478 -32.538,21.47 -27.956,24.323 C -22.946,21.401 -18.22,18.051 -13.821,14.318 -10.027,11.114 -6.471,7.603 -3.205,3.855 -2.104,2.601 -1.04,1.315 0,0"
             style="fill:#ffffff;fill-opacity:1;fill-rule:nonzero;stroke:none"
             id="path44" />
        </g>
        <g
           id="g46"
           transform="translate(794.0752,1513.7744)">
          <path
             d="M 0,0 C -30.09,3.151 -56.149,19.841 -71.99,43.858 Z"
             style="fill:#ffffff;fill-opacity:1;fill-rule:nonzero;stroke:none"
             id="path48" />
        </g>
        <g
           id="g50"
           transform="translate(885.9219,1556.2246)">
          <path
             d="M 0,0 C -15.765,-23.038 -41.051,-39.047 -70.193,-42.358 Z"
             style="fill:#ffffff;fill-opacity:1;fill-rule:nonzero;stroke:none"
             id="path52" />
        </g>
        <g
           id="g54"
           transform="translate(737.8721,1579.7495)">
          <path
             d="M 0,0 -21.105,-12.745 0,-0.035 Z"
             style="fill:#000000;fill-opacity:1;fill-rule:nonzero;stroke:none"
             id="path56" />
        </g>
        <g
           id="g58"
           transform="translate(871.5615,1660.4761)">
          <path
             d="M 0,0 1.921,1.16 0,0.018 Z"
             style="fill:#000000;fill-opacity:1;fill-rule:nonzero;stroke:none"
             id="path60" />
        </g>
        <g
           id="g62"
           transform="translate(742.7676,1641.3403)">
          <path
             d="M 0,0 0.092,22.334 -16.139,31.062 C -15.497,31.888 -14.854,32.691 -14.173,33.494 V 33.501 C -9.309,39.368 -3.764,44.661 2.333,49.258 L 2.409,49.312 13.141,55.79 H 13.148 L 17.936,52.906 17.982,52.929 52.837,32.002 Z"
             style="fill:#ffffff;fill-opacity:1;fill-rule:nonzero;stroke:none"
             id="path64" />
        </g>
        <g
           id="g66"
           transform="translate(797.3125,1627.9771)">
          <path
             d="M 0,0 C 0.419,3.199 3.071,5.808 6.275,6.186 10.67,6.704 14.396,3.288 14.396,-0.983 14.396,-4.187 12.308,-6.913 9.423,-7.869 8.715,-8.099 7.953,-8.223 7.157,-8.223 6.36,-8.223 5.6,-8.099 4.892,-7.851 1.715,-6.799 -0.475,-3.623 0,0 M 22.966,-27.635 12.998,-13.072 C 17.493,-10.913 20.591,-6.311 20.591,-0.983 20.591,6.923 13.719,13.252 5.612,12.346 -0.388,11.676 -5.335,6.855 -6.135,0.871 -6.95,-5.226 -3.677,-10.668 1.334,-13.055 L -8.573,-27.543 C -9.469,-28.853 -8.531,-30.631 -6.944,-30.631 H 21.386 C 22.926,-30.631 23.835,-28.905 22.966,-27.635"
             style="fill:#000000;fill-opacity:1;fill-rule:nonzero;stroke:none"
             id="path68" />
        </g>
        <g
           id="g70"
           transform="translate(808.7461,1627.0093)">
          <path
             d="M 0,0 C 0,-2.343 -1.899,-4.242 -4.242,-4.242 -6.585,-4.242 -8.484,-2.343 -8.484,0 -8.484,2.343 -6.585,4.242 -4.242,4.242 -1.899,4.242 0,2.343 0,0"
             style="fill:#000000;fill-opacity:1;fill-rule:nonzero;stroke:none"
             id="path72" />
        </g>
        <path
           d="M 805.436,1627.009 H 803.572 V 1643.881 H 805.436 Z"
           style="fill:#000000;fill-opacity:1;fill-rule:nonzero;stroke:none"
           id="path74" />
        <g
           id="g76"
           transform="translate(804.0371,1627.8164)">
          <path
             d="M 0,0 0.933,-1.614 -13.677,-10.052 -14.61,-8.438 Z"
             style="fill:#000000;fill-opacity:1;fill-rule:nonzero;stroke:none"
             id="path78" />
        </g>
        <g
           id="g80"
           transform="translate(804.0352,1626.2036)">
          <path
             d="M 0,0 0.937,1.611 15.521,-6.873 14.583,-8.484 Z"
             style="fill:#000000;fill-opacity:1;fill-rule:nonzero;stroke:none"
             id="path82" />
        </g>
        <g
           id="g84"
           transform="translate(821.9258,1618.1558)">
          <path
             d="M 0,0 C 0,-1.305 -1.059,-2.363 -2.363,-2.363 -3.669,-2.363 -4.727,-1.305 -4.727,0 -4.727,1.305 -3.669,2.363 -2.363,2.363 -1.059,2.363 0,1.305 0,0"
             style="fill:#000000;fill-opacity:1;fill-rule:nonzero;stroke:none"
             id="path86" />
        </g>
        <g
           id="g88"
           transform="translate(791.7559,1618.1558)">
          <path
             d="M 0,0 C 0,-1.305 -1.058,-2.363 -2.363,-2.363 -3.668,-2.363 -4.726,-1.305 -4.726,0 -4.726,1.305 -3.668,2.363 -2.363,2.363 -1.058,2.363 0,1.305 0,0"
             style="fill:#000000;fill-opacity:1;fill-rule:nonzero;stroke:none"
             id="path90" />
        </g>
        <g
           id="g92"
           transform="translate(806.8672,1644.2607)">
          <path
             d="M 0,0 C 0,-1.305 -1.058,-2.363 -2.362,-2.363 -3.668,-2.363 -4.726,-1.305 -4.726,0 -4.726,1.305 -3.668,2.363 -2.362,2.363 -1.058,2.363 0,1.305 0,0"
             style="fill:#000000;fill-opacity:1;fill-rule:nonzero;stroke:none"
             id="path94" />
        </g>
      </g>
    </g>
    <g
       id="g96"
       transform="matrix(0.35277777,0,0,-0.35277777,-177.96845,716.374)">
      <g
         id="g98"
         clip-path="url(#clipPath102)">
        <g
           id="g104"
           transform="translate(446.853,1403.6499)">
          <path
             d="M 0,0 C -12.132,0 -21.964,9.832 -21.964,21.964 -21.964,34.084 -12.132,43.917 0,43.917 12.132,43.917 21.964,34.084 21.964,21.964 21.964,9.832 12.132,0 0,0 M 0,61.014 C -21.564,61.014 -39.05,43.528 -39.05,21.964 -39.05,0.389 -21.564,-17.098 0,-17.098 21.564,-17.098 39.051,0.389 39.051,21.964 39.051,43.528 21.564,61.014 0,61.014"
             style="fill:#ffffff;fill-opacity:1;fill-rule:nonzero;stroke:none"
             id="path106" />
        </g>
        <g
           id="g108"
           transform="translate(791.1372,1446.186)">
          <path
             d="M 0,0 V -13.701 H -23.65 C -32.604,-13.701 -39.868,-20.965 -39.868,-29.918 -39.868,-37.959 -34.006,-44.633 -26.32,-45.917 -25.458,-46.068 -24.563,-46.136 -23.65,-46.136 -22.738,-46.136 -21.843,-46.068 -20.981,-45.917 H 0 V -59.634 H -23.532 C -28.719,-59.634 -33.584,-58.316 -37.824,-56.002 -47.082,-50.934 -53.366,-41.119 -53.366,-29.817 -53.366,-18.515 -47.082,-8.7 -37.824,-3.632 -33.584,-1.318 -28.719,0 -23.532,0 Z"
             style="fill:#ffffff;fill-opacity:1;fill-rule:nonzero;stroke:none"
             id="path110" />
        </g>
        <g
           id="g112"
           transform="translate(991.7656,1446.186)">
          <path
             d="M 0,0 V -13.701 H -23.651 C -32.604,-13.701 -39.868,-20.965 -39.868,-29.918 -39.868,-37.959 -34.007,-44.633 -26.32,-45.917 -25.459,-46.068 -24.563,-46.136 -23.651,-46.136 -22.738,-46.136 -21.844,-46.068 -20.981,-45.917 H 0 V -59.634 H -23.532 C -28.719,-59.634 -33.584,-58.316 -37.824,-56.002 -47.082,-50.934 -53.366,-41.119 -53.366,-29.817 -53.366,-18.515 -47.082,-8.7 -37.824,-3.632 -33.584,-1.318 -28.719,0 -23.532,0 Z"
             style="fill:#ffffff;fill-opacity:1;fill-rule:nonzero;stroke:none"
             id="path114" />
        </g>
        <g
           id="g116"
           transform="translate(731.0645,1410.2148)">
          <path
             d="M 0,0 C 0,8.488 -4.488,15.943 -11.211,20.094 -13.427,21.483 -15.887,22.498 -18.535,23.061 -19.793,23.343 -21.089,23.53 -22.403,23.587 H -24.845 L -40.488,23.605 H -40.507 C -40.62,23.587 -40.732,23.587 -40.845,23.587 -40.958,23.587 -41.089,23.587 -41.202,23.605 -41.333,23.605 -41.464,23.605 -41.577,23.625 -45.221,24 -48.075,27.08 -48.075,30.835 -48.075,34.642 -45.107,37.778 -41.348,38.039 H -35.842 L -18.347,38.009 C -18.351,38.02 -18.355,38.029 -18.358,38.039 H -5.384 V 54.449 H -42.055 V 54.38 C -54.523,53.746 -64.469,43.46 -64.469,30.835 -64.469,22.347 -59.981,14.892 -53.258,10.742 -51.042,9.352 -48.563,8.338 -45.934,7.774 -44.544,7.455 -43.117,7.268 -41.652,7.23 H -40.131 L -27.249,7.211 H -23.981 C -23.868,7.23 -23.737,7.23 -23.624,7.23 -23.493,7.23 -23.361,7.23 -23.249,7.211 -19.437,7.023 -16.394,3.869 -16.394,0 -16.394,-3.861 -19.423,-6.995 -23.213,-7.209 H -64.462 V -23.62 H -23.744 C -23.704,-23.62 -23.665,-23.625 -23.624,-23.625 -23.591,-23.625 -23.56,-23.62 -23.527,-23.62 H -22.415 V -23.563 C -9.946,-22.929 0,-12.643 0,0"
             style="fill:#ffffff;fill-opacity:1;fill-rule:nonzero;stroke:none"
             id="path118" />
        </g>
        <g
           id="g120"
           transform="translate(520.2646,1418.5723)">
          <path
             d="M 0,0 V 0.08 H -14.8 V 17.19 H 0 C 4.75,17.19 8.6,13.34 8.6,8.59 8.6,3.85 4.75,0 0,0 M 0,27.7 H -14.8 V 27.79 H -27.35 V -31.85 H -14.8 V -9.75 H 0 C 10.17,-9.54 18.36,-1.24 18.36,8.98 18.36,19.2 10.17,27.5 0,27.7"
             style="fill:#ffffff;fill-opacity:1;fill-rule:nonzero;stroke:none"
             id="path122" />
        </g>
        <g
           id="g124"
           transform="translate(1135.9814,1464.6357)">
          <path
             d="M 0,0 -22.789,-0.094 -54.772,-33.464 V -0.094 H -71.158 V -78.087 H -54.772 V -57.146 L -48.854,-50.971 -22.789,-77.994 0,-78.087 -37.513,-39.139 Z"
             style="fill:#ffffff;fill-opacity:1;fill-rule:nonzero;stroke:none"
             id="path126" />
        </g>
        <path
           d="M 797.847,1386.723 H 810.727 V 1433.803 H 797.847 Z"
           style="fill:#ffffff;fill-opacity:1;fill-rule:nonzero;stroke:none"
           id="path128" />
        <path
           d="M 797.847,1435.84 H 810.727 V 1446.361 H 797.847 Z"
           style="fill:#ffffff;fill-opacity:1;fill-rule:nonzero;stroke:none"
           id="path130" />
        <g
           id="g132"
           transform="translate(558.8247,1421.772)">
          <path
             d="M 0,0 C 2.21,6.91 8.68,11.91 16.33,11.91 23.98,11.91 30.45,6.91 32.66,0 Z M 45.68,0 C 43.22,13.98 31.01,24.59 16.33,24.59 1.65,24.59 -10.56,13.98 -13.02,0 -13.33,-1.7 -13.49,-3.45 -13.49,-5.23 V -5.26 C -13.49,-7.06 -13.33,-8.81 -13.01,-10.52 -10.52,-24.47 1.67,-35.05 16.33,-35.05 27.12,-35.05 36.57,-29.32 41.79,-20.74 L 30.81,-14.4 C 27.78,-19.19 22.42,-22.37 16.33,-22.37 8.71,-22.37 2.25,-17.4 0.02,-10.52 H 45.67 C 45.99,-8.81 46.15,-7.06 46.15,-5.26 V -5.23 C 46.15,-3.45 45.99,-1.7 45.68,0"
             style="fill:#ffffff;fill-opacity:1;fill-rule:nonzero;stroke:none"
             id="path134" />
        </g>
        <g
           id="g136"
           transform="translate(831.2539,1421.772)">
          <path
             d="M 0,0 C 2.21,6.91 8.681,11.91 16.33,11.91 23.98,11.91 30.45,6.91 32.66,0 Z M 45.681,0 C 43.221,13.98 31.011,24.59 16.33,24.59 1.65,24.59 -10.56,13.98 -13.02,0 -13.33,-1.7 -13.489,-3.45 -13.489,-5.23 V -5.26 C -13.489,-7.06 -13.33,-8.81 -13.01,-10.52 -10.52,-24.47 1.67,-35.05 16.33,-35.05 27.12,-35.05 36.57,-29.32 41.79,-20.74 L 30.811,-14.4 C 27.78,-19.19 22.42,-22.37 16.33,-22.37 8.71,-22.37 2.25,-17.4 0.021,-10.52 H 45.67 C 45.99,-8.81 46.15,-7.06 46.15,-5.26 V -5.23 C 46.15,-3.45 45.99,-1.7 45.681,0"
             style="fill:#ffffff;fill-opacity:1;fill-rule:nonzero;stroke:none"
             id="path138" />
        </g>
        <g
           id="g140"
           transform="translate(1011.9648,1421.772)">
          <path
             d="M 0,0 C 2.21,6.91 8.68,11.91 16.33,11.91 23.979,11.91 30.449,6.91 32.659,0 Z M 45.68,0 C 43.22,13.98 31.01,24.59 16.33,24.59 1.649,24.59 -10.561,13.98 -13.021,0 -13.33,-1.7 -13.49,-3.45 -13.49,-5.23 V -5.26 C -13.49,-7.06 -13.33,-8.81 -13.011,-10.52 -10.521,-24.47 1.67,-35.05 16.33,-35.05 27.12,-35.05 36.569,-29.32 41.79,-20.74 L 30.81,-14.4 C 27.779,-19.19 22.42,-22.37 16.33,-22.37 8.71,-22.37 2.25,-17.4 0.02,-10.52 H 45.67 C 45.989,-8.81 46.149,-7.06 46.149,-5.26 V -5.23 C 46.149,-3.45 45.989,-1.7 45.68,0"
             style="fill:#ffffff;fill-opacity:1;fill-rule:nonzero;stroke:none"
             id="path142" />
        </g>
        <g
           id="g144"
           transform="translate(659.2349,1425.7021)">
          <path
             d="M 0,0 C 0.02,-0.03 0.04,-0.06 0.06,-0.09 V -38.98 H -12.49 V -5.19 C -12.49,1.03 -17.53,6.06 -23.74,6.06 -24.28,6.06 -24.81,6.02 -25.33,5.94 -30.79,5.18 -34.99,0.49 -34.99,-5.19 V -9.05 C -35,-9.05 -35,-9.04 -35,-9.04 V -38.98 H -47.54 V 20.66 H -35 V 12.11 C -35,12.11 -35,12.12 -34.99,12.12 -31.56,17.26 -25.71,20.66 -19.06,20.66 -16.75,20.66 -14.54,20.25 -12.49,19.5 -5.16,16.82 0.06,9.79 0.06,1.54 0.06,1.02 0.04,0.51 0,0"
             style="fill:#ffffff;fill-opacity:1;fill-rule:nonzero;stroke:none"
             id="path146" />
        </g>
        <g
           id="g148"
           transform="translate(931.6299,1425.7021)">
          <path
             d="M 0,0 C 0.021,-0.03 0.04,-0.06 0.061,-0.09 V -38.98 H -12.49 V -5.19 C -12.49,1.03 -17.53,6.06 -23.74,6.06 -24.28,6.06 -24.81,6.02 -25.33,5.94 -30.79,5.18 -34.99,0.49 -34.99,-5.19 V -9.05 C -35,-9.05 -35,-9.04 -35,-9.04 V -38.98 H -47.54 V 20.66 H -35 V 12.11 C -35,12.11 -35,12.12 -34.99,12.12 -31.56,17.26 -25.71,20.66 -19.06,20.66 -16.75,20.66 -14.54,20.25 -12.49,19.5 -5.16,16.82 0.061,9.79 0.061,1.54 0.061,1.02 0.04,0.51 0,0"
             style="fill:#ffffff;fill-opacity:1;fill-rule:nonzero;stroke:none"
             id="path150" />
        </g>
        <path
           d="M 1201.152,1450.761 H 1142.742 V 1464.636 H 1201.152 Z"
           style="fill:#ffffff;fill-opacity:1;fill-rule:nonzero;stroke:none"
           id="path152" />
        <path
           d="M 1201.152,1386.552 H 1142.742 V 1400.426 H 1201.152 Z"
           style="fill:#ffffff;fill-opacity:1;fill-rule:nonzero;stroke:none"
           id="path154" />
        <path
           d="M 1201.152,1418.657 H 1142.742 V 1432.532 H 1201.152 Z"
           style="fill:#ffffff;fill-opacity:1;fill-rule:nonzero;stroke:none"
           id="path156" />
        <path
           d="M 1142.742,1464.636 H 1159.173 V 1386.553 H 1142.742 Z"
           style="fill:#ffffff;fill-opacity:1;fill-rule:nonzero;stroke:none"
           id="path158" />
      </g>
    </g>
  </g>
</svg>
