<?xml version="1.0" standalone="no"?>
<!DOCTYPE svg PUBLIC "-//W3C//DTD SVG 20010904//EN"
 "http://www.w3.org/TR/2001/REC-SVG-20010904/DTD/svg10.dtd">
<svg version="1.0" xmlns="http://www.w3.org/2000/svg"
 width="1123.000000pt" height="1123.000000pt" viewBox="0 0 1123.000000 1123.000000"
 preserveAspectRatio="xMidYMid meet">
<metadata>
Created by potrace 1.14, written by Peter Selinger 2001-2017
</metadata>
<g transform="translate(0.000000,1123.000000) scale(0.100000,-0.100000)"
fill="#000000" stroke="none">
<path d="M4925 9170 c-16 -3 -46 -13 -65 -22 -19 -9 -46 -13 -60 -10 -14 3
-35 6 -47 6 -13 1 -23 5 -23 10 0 5 -6 4 -12 -1 -7 -5 -29 -9 -48 -8 -19 1
-44 -4 -56 -11 -15 -10 -48 -13 -125 -10 -81 4 -120 0 -178 -15 -40 -10 -77
-16 -82 -13 -5 3 -9 0 -9 -6 0 -6 -5 -8 -10 -5 -14 9 -113 -25 -123 -41 -4 -8
-17 -14 -27 -14 -10 0 -21 -4 -25 -9 -3 -5 -18 -12 -34 -16 -16 -3 -47 -22
-70 -42 -35 -29 -47 -34 -72 -29 -17 3 -37 12 -45 20 -12 12 -20 13 -47 2 -17
-7 -54 -12 -82 -12 -45 1 -51 4 -73 36 -17 26 -31 35 -52 36 -48 1 -70 -27
-104 -132 -15 -47 -63 -114 -83 -116 -4 -1 -30 -11 -58 -24 -55 -24 -123 -98
-131 -141 -3 -14 -15 -40 -26 -56 -24 -34 -39 -167 -19 -167 28 0 4 -37 -70
-110 -80 -78 -89 -83 -181 -104 -30 -7 -61 -46 -72 -90 -8 -31 -62 -89 -76
-81 -10 6 -43 -64 -63 -136 -12 -38 -28 -66 -54 -92 -48 -46 -57 -58 -61 -80
-4 -23 -37 -93 -61 -132 -11 -16 -23 -50 -26 -75 -4 -24 -8 -47 -10 -51 -8
-12 25 -46 54 -59 29 -11 30 -14 16 -33 -20 -29 -19 -50 5 -102 28 -62 30 -83
8 -145 -11 -30 -21 -64 -24 -75 -2 -11 -6 -31 -10 -45 -3 -14 -6 -30 -7 -35
-4 -17 -31 -49 -52 -61 -32 -18 -30 -50 5 -81 30 -27 32 -33 33 -105 2 -60 6
-80 21 -97 11 -12 21 -40 23 -63 5 -56 17 -68 70 -68 41 0 51 -6 114 -62 38
-35 69 -69 69 -76 0 -7 4 -11 9 -8 7 5 26 -51 46 -138 6 -28 23 -40 79 -61 26
-9 62 -29 80 -44 17 -15 43 -32 57 -40 14 -7 38 -23 52 -35 14 -12 38 -31 53
-42 14 -10 34 -27 43 -36 26 -26 117 -68 153 -70 18 -1 51 6 73 16 22 10 47
19 56 21 8 2 32 10 52 19 21 8 35 11 31 5 -4 -8 -1 -8 12 -1 33 18 179 12 233
-9 52 -19 75 -19 113 2 13 7 28 14 33 15 6 2 42 14 80 28 39 14 80 26 92 26
12 0 28 6 35 13 20 20 52 36 74 36 10 0 37 3 59 6 82 12 136 8 163 -12 22 -16
73 -94 74 -113 0 -3 11 -18 24 -33 20 -24 31 -28 76 -28 51 0 126 9 139 17 10
6 15 -25 14 -88 0 -32 3 -58 6 -58 3 0 6 -6 6 -12 2 -40 18 -91 47 -155 l34
-71 -29 -12 c-22 -9 -29 -19 -29 -39 1 -25 7 -38 57 -127 12 -22 52 -70 90
-109 100 -101 151 -170 167 -223 12 -40 66 -164 97 -225 6 -12 4 -27 -6 -47
-20 -39 -11 -76 47 -193 5 -10 11 -36 13 -59 4 -38 0 -45 -40 -85 -61 -60 -85
-109 -100 -207 -2 -15 -14 -49 -27 -75 -12 -25 -24 -57 -25 -71 -5 -43 -4
-124 2 -150 4 -14 8 -32 10 -40 2 -8 4 -17 4 -20 1 -3 22 -37 47 -75 25 -39
55 -90 66 -115 41 -91 76 -156 101 -184 19 -22 19 -18 21 -123 1 -43 9 -103
18 -133 9 -30 19 -80 22 -110 12 -103 49 -200 101 -256 47 -53 74 -97 102
-166 18 -45 33 -87 33 -94 0 -6 7 -17 15 -24 8 -7 13 -16 10 -20 -3 -4 6 -19
19 -33 35 -38 39 -77 10 -103 -19 -19 -22 -27 -14 -53 4 -17 16 -41 24 -53 9
-12 16 -40 16 -61 0 -40 18 -67 44 -67 8 0 32 -10 53 -21 66 -37 78 -39 118
-18 20 11 55 22 78 24 63 7 70 9 97 27 20 13 49 15 155 13 76 -1 135 2 143 7
6 6 12 7 12 4 0 -4 12 0 28 8 26 14 56 26 77 32 30 7 83 35 102 53 12 12 25
21 28 21 3 0 29 25 58 56 29 30 77 81 107 112 31 31 75 93 99 137 26 47 68
103 101 137 53 52 60 63 75 130 9 40 19 93 21 118 8 81 12 101 23 114 6 7 43
23 82 36 73 25 128 66 130 98 1 9 2 37 4 62 10 143 4 196 -33 268 l-33 63 33
38 c18 21 51 47 74 60 22 12 48 34 57 49 33 54 63 78 145 114 45 21 82 35 82
33 0 -11 64 48 90 82 70 92 82 149 55 263 -3 14 -6 88 -6 165 l0 140 -39 27
c-28 21 -40 37 -45 65 -4 21 -12 44 -18 52 -9 10 -7 16 4 25 35 25 42 55 23
94 -26 52 -27 139 -3 163 29 29 24 67 -9 86 l-29 17 29 75 c29 74 52 111 70
111 5 0 4 -9 -2 -20 -8 -16 -8 -20 4 -20 16 0 31 34 22 49 -3 5 17 18 44 30
35 15 58 33 74 60 42 66 187 204 278 265 87 57 308 266 283 266 -6 0 8 19 55
77 6 7 10 15 10 18 0 4 11 31 25 61 14 30 25 57 25 59 0 3 7 13 15 22 8 10 15
22 14 27 0 5 3 12 8 15 8 5 42 60 90 144 7 12 13 34 13 48 0 17 8 29 24 37 28
13 41 51 20 59 -12 4 -14 18 -11 64 5 64 -1 75 -50 85 -22 4 -44 -2 -84 -22
-29 -16 -60 -30 -69 -31 -17 -3 -118 -13 -165 -17 -16 -1 -45 -10 -64 -20 -22
-12 -46 -16 -66 -13 -20 3 -48 -2 -75 -14 -83 -37 -126 -13 -140 79 -11 63
-28 112 -40 112 -5 0 -49 41 -98 90 -50 50 -95 90 -100 90 -15 0 -44 38 -39
52 2 7 -5 26 -16 42 -12 17 -20 40 -19 54 3 41 -26 82 -75 103 -24 10 -47 27
-50 37 -2 9 -18 28 -34 42 -104 85 -94 68 -92 167 3 82 -9 143 -27 143 -4 0
-7 12 -7 27 0 24 -24 54 -65 80 -7 4 -23 20 -36 34 -19 22 -21 29 -11 58 10
29 9 35 -14 59 -24 27 -58 86 -56 98 0 4 -3 10 -8 13 -13 10 -71 124 -73 146
-6 51 0 66 31 77 27 9 30 14 26 45 -3 19 -8 37 -11 40 -3 3 -1 12 4 19 6 6 10
16 8 20 -1 5 4 26 11 46 13 40 6 75 -39 188 -24 62 -35 72 -64 60 -36 -13
-129 -6 -164 13 -44 24 -154 21 -197 -4 -90 -55 -81 -53 -159 -26 -96 34 -154
47 -216 51 -20 1 -49 12 -66 25 -19 13 -49 23 -77 25 -35 3 -55 11 -83 35 -48
43 -77 53 -149 54 -66 0 -122 -22 -173 -70 -34 -33 -43 -69 -30 -123 8 -31 7
-41 -8 -59 -26 -29 -46 -26 -104 15 -27 20 -50 33 -50 30 0 -3 -12 -1 -27 5
-16 6 -46 13 -67 15 -62 8 -93 29 -100 67 -7 37 -38 71 -65 73 -9 0 -29 6 -46
13 -16 6 -42 16 -56 22 -14 5 -52 11 -84 11 -72 2 -132 29 -146 65 -5 15 -19
35 -31 45 -21 18 -21 18 -1 18 21 0 77 39 57 40 -6 0 -9 10 -7 24 5 22 -21 90
-49 129 -9 13 -10 20 -2 25 29 19 50 110 26 113 -23 2 -70 13 -92 22 -29 10
-55 13 -85 7z"/>
</g>
</svg>
